<mxfile host="app.diagrams.net" modified="2020-11-22T16:22:23.841Z" agent="5.0 (Windows NT 10.0; Win64; x64) AppleWebKit/537.36 (KHTML, like Gecko) Chrome/87.0.4280.66 Safari/537.36" etag="Q4_Z_9E-PdULzFJXoHGN" version="13.10.0" type="github" pages="2">
  <diagram id="_i56P175sXGlBiGLSA6t" name="Page-1">
    <mxGraphModel dx="898" dy="430" grid="1" gridSize="10" guides="1" tooltips="1" connect="1" arrows="1" fold="1" page="1" pageScale="1" pageWidth="827" pageHeight="1169" math="0" shadow="0">
      <root>
        <mxCell id="0" />
        <mxCell id="1" parent="0" />
        <mxCell id="GTUcrFioLPO2GJF2R_8e-1" value="" style="whiteSpace=wrap;html=1;rounded=1;shadow=0;sketch=1;fillStyle=zigzag;arcSize=3;fillColor=#00CC00;" vertex="1" parent="1">
          <mxGeometry x="816" y="381" width="120" height="22.5" as="geometry" />
        </mxCell>
        <mxCell id="GTUcrFioLPO2GJF2R_8e-2" value="&lt;font color=&quot;#000000&quot; face=&quot;Garamond&quot;&gt;&lt;span style=&quot;font-size: 19px&quot;&gt;API&lt;/span&gt;&lt;/font&gt;" style="whiteSpace=wrap;html=1;rounded=1;shadow=1;fontColor=#0066CC;strokeWidth=1;glass=0;sketch=1;fillStyle=zigzag;fontStyle=1;rotation=90;fillColor=#DAE8FC;" vertex="1" parent="1">
          <mxGeometry x="-70" y="550" width="413" height="40" as="geometry" />
        </mxCell>
        <mxCell id="GTUcrFioLPO2GJF2R_8e-3" value="&lt;font color=&quot;#000000&quot; face=&quot;Garamond&quot;&gt;&lt;span style=&quot;font-size: 19px&quot;&gt;API&lt;/span&gt;&lt;/font&gt;" style="whiteSpace=wrap;html=1;rounded=1;shadow=1;fontColor=#0066CC;strokeWidth=1;glass=0;sketch=1;fillStyle=zigzag;fontStyle=1;rotation=90;fillColor=#DAE8FC;" vertex="1" parent="1">
          <mxGeometry x="-70" y="550" width="413" height="40" as="geometry" />
        </mxCell>
        <mxCell id="GTUcrFioLPO2GJF2R_8e-4" value="&lt;font color=&quot;#000000&quot; face=&quot;Garamond&quot;&gt;&lt;span style=&quot;font-size: 19px&quot;&gt;API&lt;/span&gt;&lt;/font&gt;" style="whiteSpace=wrap;html=1;rounded=1;shadow=1;fontColor=#0066CC;strokeWidth=1;glass=0;sketch=1;fillStyle=zigzag;fontStyle=1;rotation=90;fillColor=#DAE8FC;" vertex="1" parent="1">
          <mxGeometry x="-70" y="550" width="413" height="40" as="geometry" />
        </mxCell>
        <mxCell id="GTUcrFioLPO2GJF2R_8e-5" value="" style="shape=cylinder3;whiteSpace=wrap;html=1;boundedLbl=1;backgroundOutline=1;size=7.727294921875;rounded=1;shadow=1;sketch=1;rotation=-90;fillColor=#00CC00;" vertex="1" parent="1">
          <mxGeometry x="270" y="330" width="30" height="125" as="geometry" />
        </mxCell>
        <mxCell id="GTUcrFioLPO2GJF2R_8e-6" value="&lt;font face=&quot;Garamond&quot; size=&quot;1&quot;&gt;&lt;b style=&quot;font-size: 16px&quot;&gt;Command Bus&lt;/b&gt;&lt;/font&gt;" style="text;html=1;strokeColor=none;fillColor=none;align=center;verticalAlign=middle;whiteSpace=wrap;rounded=0;shadow=1;sketch=1;" vertex="1" parent="1">
          <mxGeometry x="240" y="382.5" width="106" height="20" as="geometry" />
        </mxCell>
        <mxCell id="GTUcrFioLPO2GJF2R_8e-7" value="" style="shape=cylinder3;whiteSpace=wrap;html=1;boundedLbl=1;backgroundOutline=1;size=7.727294921875;rounded=1;shadow=1;sketch=1;rotation=-90;fillColor=#00CC00;" vertex="1" parent="1">
          <mxGeometry x="270" y="330" width="30" height="125" as="geometry" />
        </mxCell>
        <mxCell id="GTUcrFioLPO2GJF2R_8e-8" value="&lt;font face=&quot;Garamond&quot; size=&quot;1&quot;&gt;&lt;b style=&quot;font-size: 16px&quot;&gt;Command Bus&lt;/b&gt;&lt;/font&gt;" style="text;html=1;strokeColor=none;fillColor=none;align=center;verticalAlign=middle;whiteSpace=wrap;rounded=0;shadow=1;sketch=1;" vertex="1" parent="1">
          <mxGeometry x="240" y="382.5" width="106" height="20" as="geometry" />
        </mxCell>
        <mxCell id="GTUcrFioLPO2GJF2R_8e-79" style="edgeStyle=orthogonalEdgeStyle;rounded=0;orthogonalLoop=1;jettySize=auto;html=1;exitX=0.145;exitY=0;exitDx=0;exitDy=2.2409155273437498;exitPerimeter=0;entryX=0.096;entryY=-0.092;entryDx=0;entryDy=0;entryPerimeter=0;strokeWidth=2;fillColor=#007FFF;" edge="1" parent="1" source="GTUcrFioLPO2GJF2R_8e-9" target="GTUcrFioLPO2GJF2R_8e-4">
          <mxGeometry relative="1" as="geometry" />
        </mxCell>
        <mxCell id="GTUcrFioLPO2GJF2R_8e-9" value="" style="shape=cylinder3;whiteSpace=wrap;html=1;boundedLbl=1;backgroundOutline=1;size=7.727294921875;rounded=1;shadow=0;sketch=1;rotation=-90;fillStyle=zigzag;fillColor=#00CC00;" vertex="1" parent="1">
          <mxGeometry x="270" y="330" width="30" height="125" as="geometry" />
        </mxCell>
        <mxCell id="GTUcrFioLPO2GJF2R_8e-82" style="edgeStyle=orthogonalEdgeStyle;rounded=0;orthogonalLoop=1;jettySize=auto;html=1;entryX=0;entryY=0.25;entryDx=0;entryDy=0;strokeWidth=2;fillColor=#007FFF;" edge="1" parent="1" target="GTUcrFioLPO2GJF2R_8e-13">
          <mxGeometry relative="1" as="geometry">
            <mxPoint x="340" y="378" as="sourcePoint" />
            <Array as="points">
              <mxPoint x="346" y="378" />
              <mxPoint x="373" y="378" />
            </Array>
          </mxGeometry>
        </mxCell>
        <mxCell id="GTUcrFioLPO2GJF2R_8e-10" value="&lt;font face=&quot;Garamond&quot; size=&quot;1&quot;&gt;&lt;b style=&quot;font-size: 16px&quot;&gt;Command Bus&lt;/b&gt;&lt;/font&gt;" style="text;html=1;strokeColor=none;fillColor=none;align=center;verticalAlign=middle;whiteSpace=wrap;rounded=0;shadow=0;sketch=1;" vertex="1" parent="1">
          <mxGeometry x="240" y="382.5" width="106" height="20" as="geometry" />
        </mxCell>
        <mxCell id="GTUcrFioLPO2GJF2R_8e-11" value="&lt;b&gt;&lt;font face=&quot;Garamond&quot; style=&quot;font-size: 16px&quot;&gt;Command Handler&lt;/font&gt;&lt;/b&gt;" style="whiteSpace=wrap;html=1;rounded=1;shadow=0;sketch=1;fillStyle=zigzag;fillColor=#007FFF;" vertex="1" parent="1">
          <mxGeometry x="400" y="365" width="110" height="50" as="geometry" />
        </mxCell>
        <mxCell id="GTUcrFioLPO2GJF2R_8e-12" value="&lt;b&gt;&lt;font face=&quot;Garamond&quot; style=&quot;font-size: 16px&quot;&gt;Command Handler&lt;/font&gt;&lt;/b&gt;" style="whiteSpace=wrap;html=1;rounded=1;shadow=0;sketch=1;fillStyle=zigzag;fillColor=#007FFF;" vertex="1" parent="1">
          <mxGeometry x="400" y="365" width="110" height="50" as="geometry" />
        </mxCell>
        <mxCell id="GTUcrFioLPO2GJF2R_8e-13" value="&lt;b&gt;&lt;font face=&quot;Garamond&quot; style=&quot;font-size: 16px&quot;&gt;Command Handler&lt;/font&gt;&lt;/b&gt;" style="whiteSpace=wrap;html=1;rounded=1;shadow=0;sketch=1;fillStyle=zigzag;fillColor=#007FFF;" vertex="1" parent="1">
          <mxGeometry x="400" y="365" width="110" height="50" as="geometry" />
        </mxCell>
        <mxCell id="GTUcrFioLPO2GJF2R_8e-83" style="edgeStyle=orthogonalEdgeStyle;rounded=0;orthogonalLoop=1;jettySize=auto;html=1;exitX=0.009;exitY=0.392;exitDx=0;exitDy=0;entryX=1;entryY=0.25;entryDx=0;entryDy=0;strokeWidth=2;fillColor=#007FFF;exitPerimeter=0;" edge="1" parent="1" source="GTUcrFioLPO2GJF2R_8e-14" target="GTUcrFioLPO2GJF2R_8e-12">
          <mxGeometry relative="1" as="geometry">
            <Array as="points">
              <mxPoint x="557" y="378" />
              <mxPoint x="556" y="378" />
            </Array>
          </mxGeometry>
        </mxCell>
        <mxCell id="GTUcrFioLPO2GJF2R_8e-86" style="edgeStyle=orthogonalEdgeStyle;rounded=0;orthogonalLoop=1;jettySize=auto;html=1;exitX=1;exitY=0.5;exitDx=0;exitDy=0;entryX=0;entryY=0.75;entryDx=0;entryDy=0;strokeWidth=2;fillColor=#007FFF;" edge="1" parent="1" source="GTUcrFioLPO2GJF2R_8e-14" target="GTUcrFioLPO2GJF2R_8e-27">
          <mxGeometry relative="1" as="geometry">
            <Array as="points">
              <mxPoint x="746" y="394" />
            </Array>
          </mxGeometry>
        </mxCell>
        <mxCell id="GTUcrFioLPO2GJF2R_8e-14" value="" style="rounded=1;whiteSpace=wrap;html=1;shadow=0;sketch=0;fillColor=none;dashed=1;dashPattern=1 2;strokeWidth=2;" vertex="1" parent="1">
          <mxGeometry x="555.5" y="336.88" width="190" height="111.25" as="geometry" />
        </mxCell>
        <mxCell id="GTUcrFioLPO2GJF2R_8e-15" value="&lt;b style=&quot;color: rgb(0 , 0 , 0) ; font-family: &amp;#34;helvetica&amp;#34; ; font-size: 12px ; font-style: normal ; letter-spacing: normal ; text-align: center ; text-indent: 0px ; text-transform: none ; word-spacing: 0px ; background-color: rgb(248 , 249 , 250)&quot;&gt;&lt;font face=&quot;Garamond&quot; style=&quot;font-size: 16px&quot;&gt;Domain&lt;/font&gt;&lt;/b&gt;" style="text;whiteSpace=wrap;html=1;" vertex="1" parent="1">
          <mxGeometry x="615.5" y="330" width="70" height="30" as="geometry" />
        </mxCell>
        <mxCell id="GTUcrFioLPO2GJF2R_8e-16" style="edgeStyle=orthogonalEdgeStyle;rounded=0;orthogonalLoop=1;jettySize=auto;html=1;exitX=0.5;exitY=1;exitDx=0;exitDy=0;entryX=0.5;entryY=0;entryDx=0;entryDy=0;shape=link;width=-0.20134228187919412;" edge="1" parent="1" source="GTUcrFioLPO2GJF2R_8e-17" target="GTUcrFioLPO2GJF2R_8e-18">
          <mxGeometry relative="1" as="geometry" />
        </mxCell>
        <mxCell id="GTUcrFioLPO2GJF2R_8e-17" value="" style="whiteSpace=wrap;html=1;rounded=1;shadow=0;sketch=1;fillStyle=solid;strokeColor=#9673a6;fillColor=#330033;" vertex="1" parent="1">
          <mxGeometry x="571" y="360" width="39" height="20" as="geometry" />
        </mxCell>
        <mxCell id="GTUcrFioLPO2GJF2R_8e-18" value="" style="whiteSpace=wrap;html=1;rounded=1;shadow=0;sketch=1;fillStyle=solid;strokeColor=#9673a6;fillColor=#330033;" vertex="1" parent="1">
          <mxGeometry x="571" y="400" width="39" height="17.5" as="geometry" />
        </mxCell>
        <mxCell id="GTUcrFioLPO2GJF2R_8e-19" value="" style="whiteSpace=wrap;html=1;rounded=1;shadow=0;sketch=1;fillStyle=solid;fillColor=#FFFF00;strokeColor=#FFB570;" vertex="1" parent="1">
          <mxGeometry x="670" y="355" width="39" height="20" as="geometry" />
        </mxCell>
        <mxCell id="GTUcrFioLPO2GJF2R_8e-20" value="" style="whiteSpace=wrap;html=1;rounded=1;shadow=0;sketch=1;fillStyle=solid;fillColor=#FFFF00;strokeColor=#FFB570;" vertex="1" parent="1">
          <mxGeometry x="631" y="390" width="39" height="20" as="geometry" />
        </mxCell>
        <mxCell id="GTUcrFioLPO2GJF2R_8e-21" value="" style="whiteSpace=wrap;html=1;rounded=1;shadow=0;sketch=1;fillStyle=solid;fillColor=#FFFF00;strokeColor=#FFB570;" vertex="1" parent="1">
          <mxGeometry x="690" y="402.5" width="39" height="20" as="geometry" />
        </mxCell>
        <mxCell id="GTUcrFioLPO2GJF2R_8e-22" value="" style="endArrow=none;html=1;entryX=0.5;entryY=1;entryDx=0;entryDy=0;exitX=0.5;exitY=0;exitDx=0;exitDy=0;" edge="1" parent="1" source="GTUcrFioLPO2GJF2R_8e-21" target="GTUcrFioLPO2GJF2R_8e-19">
          <mxGeometry width="50" height="50" relative="1" as="geometry">
            <mxPoint x="250" y="270" as="sourcePoint" />
            <mxPoint x="300" y="220" as="targetPoint" />
          </mxGeometry>
        </mxCell>
        <mxCell id="GTUcrFioLPO2GJF2R_8e-23" value="" style="endArrow=none;html=1;entryX=0.5;entryY=1;entryDx=0;entryDy=0;exitX=0.75;exitY=0;exitDx=0;exitDy=0;" edge="1" parent="1" source="GTUcrFioLPO2GJF2R_8e-20" target="GTUcrFioLPO2GJF2R_8e-19">
          <mxGeometry width="50" height="50" relative="1" as="geometry">
            <mxPoint x="410" y="270" as="sourcePoint" />
            <mxPoint x="460" y="220" as="targetPoint" />
          </mxGeometry>
        </mxCell>
        <mxCell id="GTUcrFioLPO2GJF2R_8e-24" value="" style="whiteSpace=wrap;html=1;rounded=1;shadow=0;fillColor=#007FFF;sketch=1;fillStyle=solid;arcSize=3;" vertex="1" parent="1">
          <mxGeometry x="810" y="377.5" width="120" height="22.5" as="geometry" />
        </mxCell>
        <mxCell id="GTUcrFioLPO2GJF2R_8e-25" value="&lt;font face=&quot;Garamond&quot; style=&quot;font-size: 16px&quot;&gt;&lt;b&gt;Repository&lt;/b&gt;&lt;/font&gt;" style="text;html=1;strokeColor=none;fillColor=none;align=center;verticalAlign=middle;whiteSpace=wrap;rounded=0;shadow=0;dashed=1;dashPattern=1 2;sketch=0;" vertex="1" parent="1">
          <mxGeometry x="825" y="377.5" width="90" height="20" as="geometry" />
        </mxCell>
        <mxCell id="GTUcrFioLPO2GJF2R_8e-26" value="" style="whiteSpace=wrap;html=1;rounded=1;shadow=0;sketch=1;fillStyle=zigzag;arcSize=3;fillColor=#00CC00;" vertex="1" parent="1">
          <mxGeometry x="816" y="382" width="120" height="22.5" as="geometry" />
        </mxCell>
        <mxCell id="GTUcrFioLPO2GJF2R_8e-27" value="" style="whiteSpace=wrap;html=1;rounded=1;shadow=0;fillColor=#007FFF;sketch=1;fillStyle=solid;arcSize=3;" vertex="1" parent="1">
          <mxGeometry x="810" y="377.5" width="120" height="22.5" as="geometry" />
        </mxCell>
        <mxCell id="GTUcrFioLPO2GJF2R_8e-28" value="&lt;font face=&quot;Garamond&quot; style=&quot;font-size: 16px&quot;&gt;&lt;b&gt;Repository&lt;/b&gt;&lt;/font&gt;" style="text;html=1;strokeColor=none;fillColor=none;align=center;verticalAlign=middle;whiteSpace=wrap;rounded=0;shadow=0;dashed=1;dashPattern=1 2;sketch=0;" vertex="1" parent="1">
          <mxGeometry x="825" y="377.5" width="95" height="20" as="geometry" />
        </mxCell>
        <mxCell id="GTUcrFioLPO2GJF2R_8e-29" value="" style="shape=cylinder3;whiteSpace=wrap;html=1;boundedLbl=1;backgroundOutline=1;size=7.727294921875;rounded=1;shadow=0;sketch=1;rotation=-90;fillStyle=zigzag;fillColor=#00CC00;" vertex="1" parent="1">
          <mxGeometry x="290" y="673.25" width="30" height="125" as="geometry" />
        </mxCell>
        <mxCell id="GTUcrFioLPO2GJF2R_8e-30" value="&lt;font face=&quot;Garamond&quot; size=&quot;1&quot;&gt;&lt;b style=&quot;font-size: 16px&quot;&gt;Query Bus&lt;/b&gt;&lt;/font&gt;" style="text;html=1;strokeColor=none;fillColor=none;align=center;verticalAlign=middle;whiteSpace=wrap;rounded=0;shadow=0;sketch=1;" vertex="1" parent="1">
          <mxGeometry x="260" y="725.75" width="106" height="20" as="geometry" />
        </mxCell>
        <mxCell id="GTUcrFioLPO2GJF2R_8e-31" value="" style="shape=cylinder3;whiteSpace=wrap;html=1;boundedLbl=1;backgroundOutline=1;size=7.727294921875;rounded=1;shadow=1;sketch=1;rotation=-90;fillStyle=zigzag;fillColor=#00CC00;" vertex="1" parent="1">
          <mxGeometry x="290" y="673.25" width="30" height="125" as="geometry" />
        </mxCell>
        <mxCell id="GTUcrFioLPO2GJF2R_8e-32" value="&lt;font face=&quot;Garamond&quot; size=&quot;1&quot;&gt;&lt;b style=&quot;font-size: 16px&quot;&gt;Query Bus&lt;/b&gt;&lt;/font&gt;" style="text;html=1;strokeColor=none;fillColor=none;align=center;verticalAlign=middle;whiteSpace=wrap;rounded=0;shadow=1;sketch=1;" vertex="1" parent="1">
          <mxGeometry x="260" y="725.75" width="106" height="20" as="geometry" />
        </mxCell>
        <mxCell id="GTUcrFioLPO2GJF2R_8e-112" style="edgeStyle=orthogonalEdgeStyle;rounded=0;orthogonalLoop=1;jettySize=auto;html=1;exitX=0.145;exitY=0;exitDx=0;exitDy=2.2409155273437498;exitPerimeter=0;entryX=0.927;entryY=0.017;entryDx=0;entryDy=0;entryPerimeter=0;strokeWidth=2;fillColor=#007FFF;" edge="1" parent="1" source="GTUcrFioLPO2GJF2R_8e-33" target="GTUcrFioLPO2GJF2R_8e-2">
          <mxGeometry relative="1" as="geometry" />
        </mxCell>
        <mxCell id="GTUcrFioLPO2GJF2R_8e-33" value="" style="shape=cylinder3;whiteSpace=wrap;html=1;boundedLbl=1;backgroundOutline=1;size=7.727294921875;rounded=1;shadow=0;sketch=1;rotation=-90;fillStyle=zigzag;fillColor=#00CC00;" vertex="1" parent="1">
          <mxGeometry x="290" y="673.25" width="30" height="125" as="geometry" />
        </mxCell>
        <mxCell id="GTUcrFioLPO2GJF2R_8e-100" style="edgeStyle=orthogonalEdgeStyle;rounded=0;orthogonalLoop=1;jettySize=auto;html=1;exitX=1;exitY=0;exitDx=0;exitDy=0;entryX=0;entryY=0.25;entryDx=0;entryDy=0;strokeWidth=2;fillColor=#007FFF;" edge="1" parent="1" source="GTUcrFioLPO2GJF2R_8e-34" target="GTUcrFioLPO2GJF2R_8e-58">
          <mxGeometry relative="1" as="geometry">
            <Array as="points">
              <mxPoint x="366" y="724" />
            </Array>
          </mxGeometry>
        </mxCell>
        <mxCell id="GTUcrFioLPO2GJF2R_8e-34" value="&lt;font face=&quot;Garamond&quot; size=&quot;1&quot;&gt;&lt;b style=&quot;font-size: 16px&quot;&gt;Query Bus&lt;/b&gt;&lt;/font&gt;" style="text;html=1;strokeColor=none;fillColor=none;align=center;verticalAlign=middle;whiteSpace=wrap;rounded=0;shadow=0;sketch=1;" vertex="1" parent="1">
          <mxGeometry x="260" y="725.75" width="106" height="20" as="geometry" />
        </mxCell>
        <mxCell id="GTUcrFioLPO2GJF2R_8e-92" style="edgeStyle=orthogonalEdgeStyle;rounded=0;orthogonalLoop=1;jettySize=auto;html=1;exitX=-0.009;exitY=0.839;exitDx=0;exitDy=0;exitPerimeter=0;entryX=0;entryY=0.5;entryDx=0;entryDy=0;strokeWidth=2;fillColor=#007FFF;" edge="1" parent="1" source="GTUcrFioLPO2GJF2R_8e-39" target="GTUcrFioLPO2GJF2R_8e-73">
          <mxGeometry relative="1" as="geometry" />
        </mxCell>
        <mxCell id="GTUcrFioLPO2GJF2R_8e-35" value="" style="shape=cylinder3;whiteSpace=wrap;html=1;boundedLbl=1;backgroundOutline=1;size=7.727294921875;rounded=1;shadow=0;sketch=1;rotation=-90;fillStyle=zigzag;fillColor=#00CC00;" vertex="1" parent="1">
          <mxGeometry x="973.75" y="485" width="30" height="140" as="geometry" />
        </mxCell>
        <mxCell id="GTUcrFioLPO2GJF2R_8e-36" value="&lt;font face=&quot;Garamond&quot; size=&quot;1&quot;&gt;&lt;b style=&quot;font-size: 16px&quot;&gt;Event bus/Store&lt;/b&gt;&lt;/font&gt;" style="text;html=1;strokeColor=none;fillColor=none;align=center;verticalAlign=middle;whiteSpace=wrap;rounded=0;shadow=0;sketch=1;" vertex="1" parent="1">
          <mxGeometry x="936.25" y="545" width="120" height="20" as="geometry" />
        </mxCell>
        <mxCell id="GTUcrFioLPO2GJF2R_8e-90" style="edgeStyle=orthogonalEdgeStyle;rounded=0;orthogonalLoop=1;jettySize=auto;html=1;exitX=0.5;exitY=0;exitDx=0;exitDy=0;exitPerimeter=0;entryX=1;entryY=0.5;entryDx=0;entryDy=0;strokeWidth=2;fillColor=#007FFF;" edge="1" parent="1" source="GTUcrFioLPO2GJF2R_8e-37" target="GTUcrFioLPO2GJF2R_8e-44">
          <mxGeometry relative="1" as="geometry">
            <Array as="points">
              <mxPoint x="730" y="555" />
              <mxPoint x="730" y="513" />
              <mxPoint x="650" y="513" />
            </Array>
          </mxGeometry>
        </mxCell>
        <mxCell id="GTUcrFioLPO2GJF2R_8e-91" style="edgeStyle=orthogonalEdgeStyle;rounded=0;orthogonalLoop=1;jettySize=auto;html=1;exitX=0.5;exitY=0;exitDx=0;exitDy=0;exitPerimeter=0;strokeWidth=2;fillColor=#007FFF;entryX=1;entryY=0.5;entryDx=0;entryDy=0;" edge="1" parent="1" source="GTUcrFioLPO2GJF2R_8e-37" target="GTUcrFioLPO2GJF2R_8e-48">
          <mxGeometry relative="1" as="geometry">
            <mxPoint x="600" y="600" as="targetPoint" />
            <Array as="points">
              <mxPoint x="730" y="555" />
              <mxPoint x="730" y="598" />
              <mxPoint x="650" y="598" />
            </Array>
          </mxGeometry>
        </mxCell>
        <mxCell id="GTUcrFioLPO2GJF2R_8e-37" value="" style="shape=cylinder3;whiteSpace=wrap;html=1;boundedLbl=1;backgroundOutline=1;size=7.727294921875;rounded=1;shadow=0;sketch=1;rotation=-90;fillStyle=zigzag;fillColor=#00CC00;" vertex="1" parent="1">
          <mxGeometry x="974.75" y="485" width="30" height="140" as="geometry" />
        </mxCell>
        <mxCell id="GTUcrFioLPO2GJF2R_8e-38" value="&lt;font face=&quot;Garamond&quot; size=&quot;1&quot;&gt;&lt;b style=&quot;font-size: 16px&quot;&gt;Event bus/Store&lt;/b&gt;&lt;/font&gt;" style="text;html=1;strokeColor=none;fillColor=none;align=center;verticalAlign=middle;whiteSpace=wrap;rounded=0;shadow=0;sketch=1;" vertex="1" parent="1">
          <mxGeometry x="937.25" y="545" width="120" height="20" as="geometry" />
        </mxCell>
        <mxCell id="GTUcrFioLPO2GJF2R_8e-39" value="" style="shape=cylinder3;whiteSpace=wrap;html=1;boundedLbl=1;backgroundOutline=1;size=7.727294921875;rounded=1;shadow=0;sketch=1;rotation=-90;fillStyle=zigzag;fillColor=#00CC00;" vertex="1" parent="1">
          <mxGeometry x="974.75" y="485" width="30" height="140" as="geometry" />
        </mxCell>
        <mxCell id="GTUcrFioLPO2GJF2R_8e-40" value="&lt;font face=&quot;Garamond&quot; size=&quot;1&quot;&gt;&lt;b style=&quot;font-size: 16px&quot;&gt;Event bus/Store&lt;/b&gt;&lt;/font&gt;" style="text;html=1;strokeColor=none;fillColor=none;align=center;verticalAlign=middle;whiteSpace=wrap;rounded=0;shadow=0;sketch=1;" vertex="1" parent="1">
          <mxGeometry x="937.25" y="545" width="120" height="20" as="geometry" />
        </mxCell>
        <mxCell id="GTUcrFioLPO2GJF2R_8e-41" value="&lt;b&gt;&lt;font face=&quot;Garamond&quot; style=&quot;font-size: 16px&quot;&gt;Evant&lt;br&gt;Handler&lt;/font&gt;&lt;/b&gt;" style="whiteSpace=wrap;html=1;rounded=1;shadow=0;sketch=1;fillStyle=zigzag;fillColor=#007FFF;" vertex="1" parent="1">
          <mxGeometry x="521" y="487.5" width="110" height="50" as="geometry" />
        </mxCell>
        <mxCell id="GTUcrFioLPO2GJF2R_8e-42" value="&lt;b&gt;&lt;font face=&quot;Garamond&quot; style=&quot;font-size: 16px&quot;&gt;Evant&lt;br&gt;Handler&lt;/font&gt;&lt;/b&gt;" style="whiteSpace=wrap;html=1;rounded=1;shadow=0;sketch=1;fillStyle=zigzag;fillColor=#007FFF;" vertex="1" parent="1">
          <mxGeometry x="521" y="487.5" width="110" height="50" as="geometry" />
        </mxCell>
        <mxCell id="GTUcrFioLPO2GJF2R_8e-43" value="&lt;b&gt;&lt;font face=&quot;Garamond&quot; style=&quot;font-size: 16px&quot;&gt;Evant&lt;br&gt;Handler&lt;/font&gt;&lt;/b&gt;" style="whiteSpace=wrap;html=1;rounded=1;shadow=0;sketch=1;fillStyle=zigzag;fillColor=#007FFF;" vertex="1" parent="1">
          <mxGeometry x="521" y="487.5" width="110" height="50" as="geometry" />
        </mxCell>
        <mxCell id="GTUcrFioLPO2GJF2R_8e-44" value="&lt;b&gt;&lt;font face=&quot;Garamond&quot; style=&quot;font-size: 16px&quot;&gt;Evant&lt;br&gt;Handler&lt;/font&gt;&lt;/b&gt;" style="whiteSpace=wrap;html=1;rounded=1;shadow=0;sketch=1;fillStyle=zigzag;fillColor=#007FFF;" vertex="1" parent="1">
          <mxGeometry x="521" y="487.5" width="110" height="50" as="geometry" />
        </mxCell>
        <mxCell id="GTUcrFioLPO2GJF2R_8e-45" value="&lt;b&gt;&lt;font style=&quot;font-size: 17px&quot; face=&quot;Garamond&quot;&gt;Deadline Manager&lt;/font&gt;&lt;/b&gt;" style="whiteSpace=wrap;html=1;rounded=1;shadow=0;sketch=1;fillStyle=zigzag;fillColor=#FFB570;" vertex="1" parent="1">
          <mxGeometry x="521" y="572.5" width="110" height="50" as="geometry" />
        </mxCell>
        <mxCell id="GTUcrFioLPO2GJF2R_8e-46" value="&lt;b&gt;&lt;font style=&quot;font-size: 17px&quot; face=&quot;Garamond&quot;&gt;Deadline Manager&lt;/font&gt;&lt;/b&gt;" style="whiteSpace=wrap;html=1;rounded=1;shadow=0;sketch=1;fillStyle=zigzag;fillColor=#FFB570;" vertex="1" parent="1">
          <mxGeometry x="521" y="572.5" width="110" height="50" as="geometry" />
        </mxCell>
        <mxCell id="GTUcrFioLPO2GJF2R_8e-47" value="&lt;b&gt;&lt;font style=&quot;font-size: 17px&quot; face=&quot;Garamond&quot;&gt;Deadline Manager&lt;/font&gt;&lt;/b&gt;" style="whiteSpace=wrap;html=1;rounded=1;shadow=0;sketch=1;fillStyle=zigzag;fillColor=#FFB570;" vertex="1" parent="1">
          <mxGeometry x="521" y="572.5" width="110" height="50" as="geometry" />
        </mxCell>
        <mxCell id="GTUcrFioLPO2GJF2R_8e-48" value="&lt;b&gt;&lt;font style=&quot;font-size: 17px&quot; face=&quot;Garamond&quot;&gt;Deadline Manager&lt;/font&gt;&lt;/b&gt;" style="whiteSpace=wrap;html=1;rounded=1;shadow=0;sketch=1;fillStyle=zigzag;fillColor=#FFB570;" vertex="1" parent="1">
          <mxGeometry x="521" y="572.5" width="110" height="50" as="geometry" />
        </mxCell>
        <mxCell id="GTUcrFioLPO2GJF2R_8e-49" value="&lt;b&gt;&lt;font face=&quot;Garamond&quot; style=&quot;font-size: 16px&quot;&gt;Evant&lt;br&gt;Handler&lt;/font&gt;&lt;/b&gt;" style="whiteSpace=wrap;html=1;rounded=1;shadow=0;sketch=1;fillStyle=zigzag;fillColor=#007FFF;" vertex="1" parent="1">
          <mxGeometry x="770" y="717.5" width="110" height="50" as="geometry" />
        </mxCell>
        <mxCell id="GTUcrFioLPO2GJF2R_8e-50" value="&lt;b&gt;&lt;font face=&quot;Garamond&quot; style=&quot;font-size: 16px&quot;&gt;Evant&lt;br&gt;Handler&lt;/font&gt;&lt;/b&gt;" style="whiteSpace=wrap;html=1;rounded=1;shadow=0;sketch=1;fillStyle=zigzag;fillColor=#007FFF;" vertex="1" parent="1">
          <mxGeometry x="770" y="717.5" width="110" height="50" as="geometry" />
        </mxCell>
        <mxCell id="GTUcrFioLPO2GJF2R_8e-51" value="&lt;b&gt;&lt;font face=&quot;Garamond&quot; style=&quot;font-size: 16px&quot;&gt;Evant&lt;br&gt;Handler&lt;/font&gt;&lt;/b&gt;" style="whiteSpace=wrap;html=1;rounded=1;shadow=0;sketch=1;fillStyle=zigzag;fillColor=#007FFF;" vertex="1" parent="1">
          <mxGeometry x="770" y="717.5" width="110" height="50" as="geometry" />
        </mxCell>
        <mxCell id="GTUcrFioLPO2GJF2R_8e-94" style="edgeStyle=orthogonalEdgeStyle;rounded=0;orthogonalLoop=1;jettySize=auto;html=1;exitX=0;exitY=0.5;exitDx=0;exitDy=0;entryX=1.03;entryY=0.573;entryDx=0;entryDy=0;entryPerimeter=0;strokeWidth=2;fillColor=#007FFF;" edge="1" parent="1" source="GTUcrFioLPO2GJF2R_8e-52" target="GTUcrFioLPO2GJF2R_8e-62">
          <mxGeometry relative="1" as="geometry" />
        </mxCell>
        <mxCell id="GTUcrFioLPO2GJF2R_8e-52" value="&lt;b&gt;&lt;font face=&quot;Garamond&quot; style=&quot;font-size: 16px&quot;&gt;Evant&lt;br&gt;Handler&lt;/font&gt;&lt;/b&gt;" style="whiteSpace=wrap;html=1;rounded=1;shadow=0;sketch=1;fillStyle=zigzag;fillColor=#007FFF;" vertex="1" parent="1">
          <mxGeometry x="770" y="717.5" width="110" height="50" as="geometry" />
        </mxCell>
        <mxCell id="GTUcrFioLPO2GJF2R_8e-53" value="&lt;b&gt;&lt;font face=&quot;Garamond&quot; style=&quot;font-size: 16px&quot;&gt;Query&lt;br&gt;Handler&lt;/font&gt;&lt;/b&gt;" style="whiteSpace=wrap;html=1;rounded=1;shadow=0;sketch=1;fillStyle=zigzag;fillColor=#007FFF;" vertex="1" parent="1">
          <mxGeometry x="440" y="711.43" width="110" height="50" as="geometry" />
        </mxCell>
        <mxCell id="GTUcrFioLPO2GJF2R_8e-54" value="&lt;b&gt;&lt;font face=&quot;Garamond&quot; style=&quot;font-size: 16px&quot;&gt;Query&lt;br&gt;Handler&lt;/font&gt;&lt;/b&gt;" style="whiteSpace=wrap;html=1;rounded=1;shadow=0;sketch=1;fillStyle=zigzag;fillColor=#007FFF;" vertex="1" parent="1">
          <mxGeometry x="440" y="711.43" width="110" height="50" as="geometry" />
        </mxCell>
        <mxCell id="GTUcrFioLPO2GJF2R_8e-55" value="&lt;b&gt;&lt;font face=&quot;Garamond&quot; style=&quot;font-size: 16px&quot;&gt;Query&lt;br&gt;Handler&lt;/font&gt;&lt;/b&gt;" style="whiteSpace=wrap;html=1;rounded=1;shadow=0;sketch=1;fillStyle=zigzag;fillColor=#007FFF;" vertex="1" parent="1">
          <mxGeometry x="440" y="711.43" width="110" height="50" as="geometry" />
        </mxCell>
        <mxCell id="GTUcrFioLPO2GJF2R_8e-56" value="&lt;b&gt;&lt;font face=&quot;Garamond&quot; style=&quot;font-size: 16px&quot;&gt;Query&lt;br&gt;Handler&lt;/font&gt;&lt;/b&gt;" style="whiteSpace=wrap;html=1;rounded=1;shadow=0;sketch=1;fillStyle=zigzag;fillColor=#007FFF;" vertex="1" parent="1">
          <mxGeometry x="440" y="711.43" width="110" height="50" as="geometry" />
        </mxCell>
        <mxCell id="GTUcrFioLPO2GJF2R_8e-57" value="&lt;b&gt;&lt;font face=&quot;Garamond&quot; style=&quot;font-size: 16px&quot;&gt;Query&lt;br&gt;Handler&lt;/font&gt;&lt;/b&gt;" style="whiteSpace=wrap;html=1;rounded=1;shadow=0;sketch=1;fillStyle=zigzag;fillColor=#007FFF;" vertex="1" parent="1">
          <mxGeometry x="440" y="711.43" width="110" height="50" as="geometry" />
        </mxCell>
        <mxCell id="GTUcrFioLPO2GJF2R_8e-58" value="&lt;b&gt;&lt;font face=&quot;Garamond&quot; style=&quot;font-size: 16px&quot;&gt;Query&lt;br&gt;Handler&lt;/font&gt;&lt;/b&gt;" style="whiteSpace=wrap;html=1;rounded=1;shadow=0;sketch=1;fillStyle=zigzag;fillColor=#007FFF;" vertex="1" parent="1">
          <mxGeometry x="440" y="711.43" width="110" height="50" as="geometry" />
        </mxCell>
        <mxCell id="GTUcrFioLPO2GJF2R_8e-60" value="&lt;font color=&quot;#000000&quot; face=&quot;Garamond&quot; size=&quot;1&quot;&gt;&lt;b style=&quot;font-size: 16px&quot;&gt;Database&lt;/b&gt;&lt;/font&gt;" style="html=1;verticalLabelPosition=bottom;align=center;labelBackgroundColor=#ffffff;verticalAlign=top;strokeWidth=2;shadow=0;dashed=0;shape=mxgraph.ios7.icons.data;rounded=1;glass=0;sketch=1;fontColor=#0066CC;opacity=80;fillStyle=zigzag;fillColor=#CCCCCC;" vertex="1" parent="1">
          <mxGeometry x="628.75" y="693.9300000000001" width="61.25" height="85" as="geometry" />
        </mxCell>
        <mxCell id="GTUcrFioLPO2GJF2R_8e-61" value="&lt;font color=&quot;#000000&quot; face=&quot;Garamond&quot; size=&quot;1&quot;&gt;&lt;b style=&quot;font-size: 16px&quot;&gt;Database&lt;/b&gt;&lt;/font&gt;" style="html=1;verticalLabelPosition=bottom;align=center;labelBackgroundColor=#ffffff;verticalAlign=top;strokeWidth=2;shadow=0;dashed=0;shape=mxgraph.ios7.icons.data;rounded=1;glass=0;sketch=1;fontColor=#0066CC;opacity=80;fillStyle=zigzag;fillColor=#CCCCCC;" vertex="1" parent="1">
          <mxGeometry x="630" y="693.9300000000001" width="60" height="85" as="geometry" />
        </mxCell>
        <mxCell id="GTUcrFioLPO2GJF2R_8e-62" value="&lt;font color=&quot;#000000&quot; face=&quot;Garamond&quot; size=&quot;1&quot;&gt;&lt;b style=&quot;font-size: 16px&quot;&gt;Database&lt;/b&gt;&lt;/font&gt;" style="html=1;verticalLabelPosition=bottom;align=center;labelBackgroundColor=#ffffff;verticalAlign=top;strokeWidth=2;shadow=0;dashed=0;shape=mxgraph.ios7.icons.data;rounded=1;glass=0;sketch=1;fontColor=#0066CC;opacity=80;fillStyle=zigzag;fillColor=#CCCCCC;" vertex="1" parent="1">
          <mxGeometry x="630" y="693.9300000000001" width="60" height="85" as="geometry" />
        </mxCell>
        <mxCell id="GTUcrFioLPO2GJF2R_8e-63" value="" style="whiteSpace=wrap;html=1;rounded=1;shadow=0;sketch=1;fillStyle=cross-hatch;rotation=90;fillColor=#A9C4EB;" vertex="1" parent="1">
          <mxGeometry x="990.25" y="371.26" width="95" height="30" as="geometry" />
        </mxCell>
        <mxCell id="GTUcrFioLPO2GJF2R_8e-64" value="&lt;font face=&quot;Garamond&quot; size=&quot;1&quot;&gt;&lt;b style=&quot;font-size: 21px&quot;&gt;Write&lt;/b&gt;&lt;/font&gt;" style="text;html=1;strokeColor=none;fillColor=none;align=center;verticalAlign=middle;whiteSpace=wrap;rounded=0;shadow=1;dashed=1;dashPattern=1 2;sketch=0;rotation=90;" vertex="1" parent="1">
          <mxGeometry x="1017.25" y="376.26" width="40" height="20" as="geometry" />
        </mxCell>
        <mxCell id="GTUcrFioLPO2GJF2R_8e-89" style="edgeStyle=orthogonalEdgeStyle;rounded=0;orthogonalLoop=1;jettySize=auto;html=1;exitX=1;exitY=0.5;exitDx=0;exitDy=0;strokeWidth=2;fillColor=#007FFF;" edge="1" parent="1" source="GTUcrFioLPO2GJF2R_8e-67">
          <mxGeometry relative="1" as="geometry">
            <mxPoint x="1038" y="540" as="targetPoint" />
            <Array as="points">
              <mxPoint x="1038" y="540" />
            </Array>
          </mxGeometry>
        </mxCell>
        <mxCell id="GTUcrFioLPO2GJF2R_8e-65" value="" style="whiteSpace=wrap;html=1;rounded=1;shadow=0;sketch=1;fillStyle=cross-hatch;rotation=90;fillColor=#A9C4EB;" vertex="1" parent="1">
          <mxGeometry x="990.25" y="371.26" width="95" height="30" as="geometry" />
        </mxCell>
        <mxCell id="GTUcrFioLPO2GJF2R_8e-66" value="&lt;font face=&quot;Garamond&quot; size=&quot;1&quot;&gt;&lt;b style=&quot;font-size: 21px&quot;&gt;Write&lt;/b&gt;&lt;/font&gt;" style="text;html=1;strokeColor=none;fillColor=none;align=center;verticalAlign=middle;whiteSpace=wrap;rounded=0;shadow=1;dashed=1;dashPattern=1 2;sketch=0;rotation=90;" vertex="1" parent="1">
          <mxGeometry x="1017.25" y="376.26" width="40" height="20" as="geometry" />
        </mxCell>
        <mxCell id="GTUcrFioLPO2GJF2R_8e-67" value="" style="whiteSpace=wrap;html=1;rounded=1;shadow=0;sketch=1;fillStyle=cross-hatch;rotation=90;fillColor=#A9C4EB;" vertex="1" parent="1">
          <mxGeometry x="990.25" y="371.26" width="95" height="30" as="geometry" />
        </mxCell>
        <mxCell id="GTUcrFioLPO2GJF2R_8e-88" style="edgeStyle=orthogonalEdgeStyle;rounded=0;orthogonalLoop=1;jettySize=auto;html=1;exitX=0.5;exitY=1;exitDx=0;exitDy=0;entryX=1;entryY=0.5;entryDx=0;entryDy=0;strokeWidth=2;fillColor=#007FFF;" edge="1" parent="1" source="GTUcrFioLPO2GJF2R_8e-68" target="GTUcrFioLPO2GJF2R_8e-26">
          <mxGeometry relative="1" as="geometry">
            <Array as="points">
              <mxPoint x="1024" y="393" />
            </Array>
          </mxGeometry>
        </mxCell>
        <mxCell id="GTUcrFioLPO2GJF2R_8e-68" value="&lt;font face=&quot;Garamond&quot; size=&quot;1&quot;&gt;&lt;b style=&quot;font-size: 21px&quot;&gt;Write&lt;/b&gt;&lt;/font&gt;" style="text;html=1;strokeColor=none;fillColor=none;align=center;verticalAlign=middle;whiteSpace=wrap;rounded=0;shadow=1;dashed=1;dashPattern=1 2;sketch=0;rotation=90;" vertex="1" parent="1">
          <mxGeometry x="1016.25" y="373.44" width="41" height="25.63" as="geometry" />
        </mxCell>
        <mxCell id="GTUcrFioLPO2GJF2R_8e-69" value="" style="whiteSpace=wrap;html=1;rounded=1;shadow=0;sketch=1;fillStyle=cross-hatch;rotation=90;fillColor=#A9C4EB;" vertex="1" parent="1">
          <mxGeometry x="990.25" y="717.5" width="95" height="30" as="geometry" />
        </mxCell>
        <mxCell id="GTUcrFioLPO2GJF2R_8e-70" value="&lt;font face=&quot;Garamond&quot; size=&quot;1&quot;&gt;&lt;b style=&quot;font-size: 21px&quot;&gt;Read&lt;/b&gt;&lt;/font&gt;" style="text;html=1;strokeColor=none;fillColor=none;align=center;verticalAlign=middle;whiteSpace=wrap;rounded=0;shadow=1;dashed=1;dashPattern=1 2;sketch=0;rotation=90;" vertex="1" parent="1">
          <mxGeometry x="1020" y="725.75" width="33.5" height="20" as="geometry" />
        </mxCell>
        <mxCell id="GTUcrFioLPO2GJF2R_8e-71" value="" style="whiteSpace=wrap;html=1;rounded=1;shadow=0;sketch=1;fillStyle=cross-hatch;rotation=90;fillColor=#A9C4EB;" vertex="1" parent="1">
          <mxGeometry x="990.25" y="717.5" width="95" height="30" as="geometry" />
        </mxCell>
        <mxCell id="GTUcrFioLPO2GJF2R_8e-72" value="&lt;font face=&quot;Garamond&quot; size=&quot;1&quot;&gt;&lt;b style=&quot;font-size: 21px&quot;&gt;Read&lt;/b&gt;&lt;/font&gt;" style="text;html=1;strokeColor=none;fillColor=none;align=center;verticalAlign=middle;whiteSpace=wrap;rounded=0;shadow=1;dashed=1;dashPattern=1 2;sketch=0;rotation=90;" vertex="1" parent="1">
          <mxGeometry x="1020" y="725.75" width="33.5" height="20" as="geometry" />
        </mxCell>
        <mxCell id="GTUcrFioLPO2GJF2R_8e-93" style="edgeStyle=orthogonalEdgeStyle;rounded=0;orthogonalLoop=1;jettySize=auto;html=1;exitX=0.607;exitY=1.001;exitDx=0;exitDy=0;entryX=1;entryY=0.5;entryDx=0;entryDy=0;strokeWidth=2;fillColor=#007FFF;exitPerimeter=0;" edge="1" parent="1" source="GTUcrFioLPO2GJF2R_8e-73" target="GTUcrFioLPO2GJF2R_8e-52">
          <mxGeometry relative="1" as="geometry">
            <Array as="points" />
          </mxGeometry>
        </mxCell>
        <mxCell id="GTUcrFioLPO2GJF2R_8e-73" value="" style="whiteSpace=wrap;html=1;rounded=1;shadow=0;sketch=1;fillStyle=cross-hatch;rotation=90;fillColor=#A9C4EB;" vertex="1" parent="1">
          <mxGeometry x="990.25" y="717.5" width="95" height="30" as="geometry" />
        </mxCell>
        <mxCell id="GTUcrFioLPO2GJF2R_8e-74" value="&lt;font face=&quot;Garamond&quot; size=&quot;1&quot;&gt;&lt;b style=&quot;font-size: 21px&quot;&gt;Read&lt;/b&gt;&lt;/font&gt;" style="text;html=1;strokeColor=none;fillColor=none;align=center;verticalAlign=middle;whiteSpace=wrap;rounded=0;shadow=1;dashed=1;dashPattern=1 2;sketch=0;rotation=90;" vertex="1" parent="1">
          <mxGeometry x="1018.19" y="726.06" width="37.87" height="20.75" as="geometry" />
        </mxCell>
        <mxCell id="GTUcrFioLPO2GJF2R_8e-75" value="" style="shape=flexArrow;endArrow=classic;html=1;width=9;endSize=7.91;endWidth=22;fillColor=#007FFF;" edge="1" parent="1">
          <mxGeometry width="50" height="50" relative="1" as="geometry">
            <mxPoint x="984.25" y="439.63" as="sourcePoint" />
            <mxPoint x="984.25" y="329.63" as="targetPoint" />
          </mxGeometry>
        </mxCell>
        <mxCell id="GTUcrFioLPO2GJF2R_8e-77" value="" style="shape=flexArrow;endArrow=classic;html=1;width=9;endSize=7.91;endWidth=22;fillColor=#007FFF;" edge="1" parent="1">
          <mxGeometry width="50" height="50" relative="1" as="geometry">
            <mxPoint x="984" y="679.18" as="sourcePoint" />
            <mxPoint x="984" y="789.812705078125" as="targetPoint" />
          </mxGeometry>
        </mxCell>
        <mxCell id="GTUcrFioLPO2GJF2R_8e-78" value="" style="endArrow=none;html=1;fillColor=#007FFF;entryX=0.855;entryY=0;entryDx=0;entryDy=2.2409155273437498;entryPerimeter=0;exitX=0.048;exitY=-0.074;exitDx=0;exitDy=0;exitPerimeter=0;strokeWidth=2;" edge="1" parent="1" source="GTUcrFioLPO2GJF2R_8e-4" target="GTUcrFioLPO2GJF2R_8e-9">
          <mxGeometry width="50" height="50" relative="1" as="geometry">
            <mxPoint x="160" y="382" as="sourcePoint" />
            <mxPoint x="580" y="170" as="targetPoint" />
          </mxGeometry>
        </mxCell>
        <mxCell id="GTUcrFioLPO2GJF2R_8e-81" value="" style="endArrow=none;html=1;strokeWidth=2;fillColor=#007FFF;exitX=1;exitY=1;exitDx=0;exitDy=0;entryX=0;entryY=0.75;entryDx=0;entryDy=0;" edge="1" parent="1" source="GTUcrFioLPO2GJF2R_8e-10" target="GTUcrFioLPO2GJF2R_8e-13">
          <mxGeometry width="50" height="50" relative="1" as="geometry">
            <mxPoint x="330" y="260" as="sourcePoint" />
            <mxPoint x="380" y="210" as="targetPoint" />
          </mxGeometry>
        </mxCell>
        <mxCell id="GTUcrFioLPO2GJF2R_8e-84" value="" style="endArrow=none;html=1;strokeWidth=2;fillColor=#007FFF;exitX=1;exitY=0.75;exitDx=0;exitDy=0;entryX=0.006;entryY=0.601;entryDx=0;entryDy=0;entryPerimeter=0;" edge="1" parent="1" source="GTUcrFioLPO2GJF2R_8e-13" target="GTUcrFioLPO2GJF2R_8e-14">
          <mxGeometry width="50" height="50" relative="1" as="geometry">
            <mxPoint x="330" y="260" as="sourcePoint" />
            <mxPoint x="555" y="407" as="targetPoint" />
          </mxGeometry>
        </mxCell>
        <mxCell id="GTUcrFioLPO2GJF2R_8e-87" value="" style="endArrow=none;html=1;strokeWidth=2;fillColor=#007FFF;entryX=0;entryY=0.25;entryDx=0;entryDy=0;exitX=1.008;exitY=0.405;exitDx=0;exitDy=0;exitPerimeter=0;" edge="1" parent="1" source="GTUcrFioLPO2GJF2R_8e-14" target="GTUcrFioLPO2GJF2R_8e-27">
          <mxGeometry width="50" height="50" relative="1" as="geometry">
            <mxPoint x="470" y="260" as="sourcePoint" />
            <mxPoint x="520" y="210" as="targetPoint" />
          </mxGeometry>
        </mxCell>
        <mxCell id="GTUcrFioLPO2GJF2R_8e-96" value="" style="endArrow=classic;startArrow=classic;html=1;strokeWidth=2;fillColor=#007FFF;entryX=-0.003;entryY=0.496;entryDx=0;entryDy=0;entryPerimeter=0;exitX=1;exitY=0.5;exitDx=0;exitDy=0;" edge="1" parent="1" source="GTUcrFioLPO2GJF2R_8e-58" target="GTUcrFioLPO2GJF2R_8e-60">
          <mxGeometry width="50" height="50" relative="1" as="geometry">
            <mxPoint x="550" y="730" as="sourcePoint" />
            <mxPoint x="629" y="738" as="targetPoint" />
          </mxGeometry>
        </mxCell>
        <mxCell id="GTUcrFioLPO2GJF2R_8e-99" value="" style="endArrow=none;html=1;strokeWidth=2;fillColor=#007FFF;entryX=0;entryY=0.75;entryDx=0;entryDy=0;" edge="1" parent="1" target="GTUcrFioLPO2GJF2R_8e-58">
          <mxGeometry width="50" height="50" relative="1" as="geometry">
            <mxPoint x="360" y="749" as="sourcePoint" />
            <mxPoint x="500" y="560" as="targetPoint" />
          </mxGeometry>
        </mxCell>
        <mxCell id="GTUcrFioLPO2GJF2R_8e-101" value="" style="endArrow=none;html=1;strokeWidth=2;fillColor=#007FFF;entryX=0;entryY=0.5;entryDx=0;entryDy=0;exitX=0;exitY=0.5;exitDx=0;exitDy=0;" edge="1" parent="1" source="GTUcrFioLPO2GJF2R_8e-48" target="GTUcrFioLPO2GJF2R_8e-44">
          <mxGeometry width="50" height="50" relative="1" as="geometry">
            <mxPoint x="450" y="500" as="sourcePoint" />
            <mxPoint x="500" y="450" as="targetPoint" />
            <Array as="points">
              <mxPoint x="440" y="598" />
              <mxPoint x="440" y="560" />
              <mxPoint x="440" y="513" />
            </Array>
          </mxGeometry>
        </mxCell>
        <mxCell id="GTUcrFioLPO2GJF2R_8e-102" value="" style="endArrow=classic;html=1;strokeWidth=2;fillColor=#007FFF;entryX=0;entryY=0.5;entryDx=0;entryDy=0;entryPerimeter=0;" edge="1" parent="1" target="GTUcrFioLPO2GJF2R_8e-9">
          <mxGeometry width="50" height="50" relative="1" as="geometry">
            <mxPoint x="440" y="560" as="sourcePoint" />
            <mxPoint x="500" y="360" as="targetPoint" />
            <Array as="points">
              <mxPoint x="285" y="560" />
            </Array>
          </mxGeometry>
        </mxCell>
        <mxCell id="GTUcrFioLPO2GJF2R_8e-103" value="&lt;div style=&quot;text-align: center&quot;&gt;&lt;span style=&quot;font-size: 16px&quot;&gt;&lt;font face=&quot;Garamond&quot;&gt;&lt;b style=&quot;font-size: 15px&quot;&gt;command&lt;/b&gt;&lt;/font&gt;&lt;/span&gt;&lt;/div&gt;&lt;span style=&quot;color: rgba(0 , 0 , 0 , 0) ; font-family: monospace ; font-size: 0px&quot;&gt;%3CmxGraphModel%3E%3Croot%3E%3CmxCell%20id%3D%220%22%2F%3E%3CmxCell%20id%3D%221%22%20parent%3D%220%22%2F%3E%3CmxCell%20id%3D%222%22%20value%3D%22%26lt%3Bb%20style%3D%26quot%3Bcolor%3A%20rgb(0%20%2C%200%20%2C%200)%20%3B%20font-family%3A%20%26amp%3B%2334%3Bhelvetica%26amp%3B%2334%3B%20%3B%20font-size%3A%2012px%20%3B%20font-style%3A%20normal%20%3B%20letter-spacing%3A%20normal%20%3B%20text-align%3A%20center%20%3B%20text-indent%3A%200px%20%3B%20text-transform%3A%20none%20%3B%20word-spacing%3A%200px%20%3B%20background-color%3A%20rgb(248%20%2C%20249%20%2C%20250)%26quot%3B%26gt%3B%26lt%3Bfont%20face%3D%26quot%3BGaramond%26quot%3B%20style%3D%26quot%3Bfont-size%3A%2016px%26quot%3B%26gt%3BDomain%26lt%3B%2Ffont%26gt%3B%26lt%3B%2Fb%26gt%3B%22%20style%3D%22text%3BwhiteSpace%3Dwrap%3Bhtml%3D1%3B%22%20vertex%3D%221%22%20parent%3D%221%22%3E%3CmxGeometry%20x%3D%22615.5%22%20y%3D%22330%22%20width%3D%2270%22%20height%3D%2230%22%20as%3D%22geometry%22%2F%3E%3C%2FmxCell%3E%3C%2Froot%3E%3C%2FmxGraphModel%3E&lt;/span&gt;" style="text;whiteSpace=wrap;html=1;" vertex="1" parent="1">
          <mxGeometry x="160" y="355" width="70" height="30" as="geometry" />
        </mxCell>
        <mxCell id="GTUcrFioLPO2GJF2R_8e-104" value="&lt;b style=&quot;color: rgb(0 , 0 , 0) ; font-family: &amp;#34;helvetica&amp;#34; ; font-size: 12px ; font-style: normal ; letter-spacing: normal ; text-align: center ; text-indent: 0px ; text-transform: none ; word-spacing: 0px ; background-color: rgb(248 , 249 , 250)&quot;&gt;&lt;font face=&quot;Garamond&quot; style=&quot;font-size: 16px&quot;&gt;reply&lt;/font&gt;&lt;/b&gt;" style="text;whiteSpace=wrap;html=1;" vertex="1" parent="1">
          <mxGeometry x="177" y="393.75" width="70" height="30" as="geometry" />
        </mxCell>
        <mxCell id="GTUcrFioLPO2GJF2R_8e-105" value="&lt;div style=&quot;text-align: center&quot;&gt;&lt;font face=&quot;Garamond&quot;&gt;&lt;span style=&quot;font-size: 15px&quot;&gt;&lt;b&gt;evants&lt;/b&gt;&lt;/span&gt;&lt;/font&gt;&lt;/div&gt;" style="text;whiteSpace=wrap;html=1;" vertex="1" parent="1">
          <mxGeometry x="790" y="530" width="70" height="30" as="geometry" />
        </mxCell>
        <mxCell id="GTUcrFioLPO2GJF2R_8e-106" value="&lt;div style=&quot;text-align: center&quot;&gt;&lt;span style=&quot;font-size: 16px&quot;&gt;&lt;font face=&quot;Garamond&quot;&gt;&lt;b style=&quot;font-size: 15px&quot;&gt;command&lt;/b&gt;&lt;/font&gt;&lt;/span&gt;&lt;/div&gt;&lt;span style=&quot;color: rgba(0 , 0 , 0 , 0) ; font-family: monospace ; font-size: 0px&quot;&gt;%3CmxGraphModel%3E%3Croot%3E%3CmxCell%20id%3D%220%22%2F%3E%3CmxCell%20id%3D%221%22%20parent%3D%220%22%2F%3E%3CmxCell%20id%3D%222%22%20value%3D%22%26lt%3Bb%20style%3D%26quot%3Bcolor%3A%20rgb(0%20%2C%200%20%2C%200)%20%3B%20font-family%3A%20%26amp%3B%2334%3Bhelvetica%26amp%3B%2334%3B%20%3B%20font-size%3A%2012px%20%3B%20font-style%3A%20normal%20%3B%20letter-spacing%3A%20normal%20%3B%20text-align%3A%20center%20%3B%20text-indent%3A%200px%20%3B%20text-transform%3A%20none%20%3B%20word-spacing%3A%200px%20%3B%20background-color%3A%20rgb(248%20%2C%20249%20%2C%20250)%26quot%3B%26gt%3B%26lt%3Bfont%20face%3D%26quot%3BGaramond%26quot%3B%20style%3D%26quot%3Bfont-size%3A%2016px%26quot%3B%26gt%3BDomain%26lt%3B%2Ffont%26gt%3B%26lt%3B%2Fb%26gt%3B%22%20style%3D%22text%3BwhiteSpace%3Dwrap%3Bhtml%3D1%3B%22%20vertex%3D%221%22%20parent%3D%221%22%3E%3CmxGeometry%20x%3D%22615.5%22%20y%3D%22330%22%20width%3D%2270%22%20height%3D%2230%22%20as%3D%22geometry%22%2F%3E%3C%2FmxCell%3E%3C%2Froot%3E%3C%2FmxGraphModel%3E&lt;/span&gt;" style="text;whiteSpace=wrap;html=1;" vertex="1" parent="1">
          <mxGeometry x="330" y="535" width="70" height="30" as="geometry" />
        </mxCell>
        <mxCell id="GTUcrFioLPO2GJF2R_8e-107" value="&lt;div style=&quot;text-align: center&quot;&gt;&lt;font face=&quot;Garamond&quot;&gt;&lt;span style=&quot;font-size: 15px&quot;&gt;&lt;b&gt;evants&lt;/b&gt;&lt;/span&gt;&lt;/font&gt;&lt;/div&gt;" style="text;whiteSpace=wrap;html=1;rotation=90;" vertex="1" parent="1">
          <mxGeometry x="1010" y="485" width="70" height="30" as="geometry" />
        </mxCell>
        <mxCell id="GTUcrFioLPO2GJF2R_8e-108" value="&lt;div style=&quot;text-align: center&quot;&gt;&lt;font face=&quot;Garamond&quot;&gt;&lt;span style=&quot;font-size: 15px&quot;&gt;&lt;b&gt;evants&lt;/b&gt;&lt;/span&gt;&lt;/font&gt;&lt;/div&gt;" style="text;whiteSpace=wrap;html=1;rotation=90;" vertex="1" parent="1">
          <mxGeometry x="1010" y="622.5" width="70" height="30" as="geometry" />
        </mxCell>
        <mxCell id="GTUcrFioLPO2GJF2R_8e-109" value="&lt;div style=&quot;text-align: center&quot;&gt;&lt;span lang=&quot;SR-LATN-RS&quot;&gt;&lt;font face=&quot;Garamond&quot; style=&quot;font-size: 15px&quot;&gt;&lt;b&gt;QueryUpdateEmitter&lt;/b&gt;&lt;/font&gt;&lt;/span&gt;&lt;br&gt;&lt;/div&gt;" style="text;whiteSpace=wrap;html=1;rotation=90;" vertex="1" parent="1">
          <mxGeometry x="660" y="710" width="143" height="30" as="geometry" />
        </mxCell>
        <mxCell id="GTUcrFioLPO2GJF2R_8e-110" value="&lt;div style=&quot;text-align: center&quot;&gt;&lt;font face=&quot;Garamond&quot;&gt;&lt;span style=&quot;font-size: 15px&quot;&gt;&lt;b&gt;query&lt;/b&gt;&lt;/span&gt;&lt;/font&gt;&lt;/div&gt;" style="text;whiteSpace=wrap;html=1;" vertex="1" parent="1">
          <mxGeometry x="170" y="696.06" width="70" height="30" as="geometry" />
        </mxCell>
        <mxCell id="GTUcrFioLPO2GJF2R_8e-111" value="" style="endArrow=none;html=1;strokeWidth=2;fillColor=#007FFF;entryX=0.855;entryY=0;entryDx=0;entryDy=2.2409155273437498;exitX=0.872;exitY=-0.001;exitDx=0;exitDy=0;exitPerimeter=0;entryPerimeter=0;" edge="1" parent="1" source="GTUcrFioLPO2GJF2R_8e-2" target="GTUcrFioLPO2GJF2R_8e-33">
          <mxGeometry width="50" height="50" relative="1" as="geometry">
            <mxPoint x="370" y="759" as="sourcePoint" />
            <mxPoint x="450" y="758.9299999999998" as="targetPoint" />
          </mxGeometry>
        </mxCell>
        <mxCell id="GTUcrFioLPO2GJF2R_8e-113" value="" style="endArrow=none;dashed=1;html=1;strokeWidth=2;fillColor=#007FFF;exitX=0.673;exitY=-0.037;exitDx=0;exitDy=0;exitPerimeter=0;" edge="1" parent="1" source="GTUcrFioLPO2GJF2R_8e-4">
          <mxGeometry width="50" height="50" relative="1" as="geometry">
            <mxPoint x="540" y="590" as="sourcePoint" />
            <mxPoint x="1081.45458984375" y="640" as="targetPoint" />
          </mxGeometry>
        </mxCell>
      </root>
    </mxGraphModel>
  </diagram>
  <diagram id="w4K5A55YLYIbhENEkCTk" name="Page-2">
    <mxGraphModel dx="898" dy="430" grid="1" gridSize="10" guides="1" tooltips="1" connect="1" arrows="1" fold="1" page="1" pageScale="1" pageWidth="827" pageHeight="1169" math="0" shadow="0">
      <root>
        <mxCell id="SFD-R1A5OsZQK9GlgF2F-0" />
        <mxCell id="SFD-R1A5OsZQK9GlgF2F-1" parent="SFD-R1A5OsZQK9GlgF2F-0" />
        <mxCell id="SFD-R1A5OsZQK9GlgF2F-2" value="" style="whiteSpace=wrap;html=1;rounded=1;shadow=0;sketch=1;fillStyle=zigzag;arcSize=3;fillColor=#00CC00;" vertex="1" parent="SFD-R1A5OsZQK9GlgF2F-1">
          <mxGeometry x="816" y="381" width="120" height="22.5" as="geometry" />
        </mxCell>
        <mxCell id="SFD-R1A5OsZQK9GlgF2F-3" value="&lt;font color=&quot;#000000&quot; face=&quot;Garamond&quot;&gt;&lt;span style=&quot;font-size: 19px&quot;&gt;API&lt;/span&gt;&lt;/font&gt;" style="whiteSpace=wrap;html=1;rounded=1;shadow=1;fontColor=#0066CC;strokeWidth=1;glass=0;sketch=1;fillStyle=zigzag;fontStyle=1;rotation=90;fillColor=#DAE8FC;" vertex="1" parent="SFD-R1A5OsZQK9GlgF2F-1">
          <mxGeometry x="-70" y="550" width="413" height="40" as="geometry" />
        </mxCell>
        <mxCell id="SFD-R1A5OsZQK9GlgF2F-4" value="&lt;font color=&quot;#000000&quot; face=&quot;Garamond&quot;&gt;&lt;span style=&quot;font-size: 19px&quot;&gt;API&lt;/span&gt;&lt;/font&gt;" style="whiteSpace=wrap;html=1;rounded=1;shadow=1;fontColor=#0066CC;strokeWidth=1;glass=0;sketch=1;fillStyle=zigzag;fontStyle=1;rotation=90;fillColor=#DAE8FC;" vertex="1" parent="SFD-R1A5OsZQK9GlgF2F-1">
          <mxGeometry x="-70" y="550" width="413" height="40" as="geometry" />
        </mxCell>
        <mxCell id="SFD-R1A5OsZQK9GlgF2F-5" value="&lt;font color=&quot;#000000&quot; face=&quot;Garamond&quot;&gt;&lt;span style=&quot;font-size: 19px&quot;&gt;API&lt;/span&gt;&lt;/font&gt;" style="whiteSpace=wrap;html=1;rounded=1;shadow=1;fontColor=#0066CC;strokeWidth=1;glass=0;sketch=1;fillStyle=zigzag;fontStyle=1;rotation=90;fillColor=#DAE8FC;" vertex="1" parent="SFD-R1A5OsZQK9GlgF2F-1">
          <mxGeometry x="-70" y="550" width="413" height="40" as="geometry" />
        </mxCell>
        <mxCell id="SFD-R1A5OsZQK9GlgF2F-6" value="" style="shape=cylinder3;whiteSpace=wrap;html=1;boundedLbl=1;backgroundOutline=1;size=7.727294921875;rounded=1;shadow=1;sketch=1;rotation=-90;fillColor=#00CC00;" vertex="1" parent="SFD-R1A5OsZQK9GlgF2F-1">
          <mxGeometry x="270" y="330" width="30" height="125" as="geometry" />
        </mxCell>
        <mxCell id="SFD-R1A5OsZQK9GlgF2F-7" value="&lt;font face=&quot;Garamond&quot; size=&quot;1&quot;&gt;&lt;b style=&quot;font-size: 16px&quot;&gt;Command Bus&lt;/b&gt;&lt;/font&gt;" style="text;html=1;strokeColor=none;fillColor=none;align=center;verticalAlign=middle;whiteSpace=wrap;rounded=0;shadow=1;sketch=1;" vertex="1" parent="SFD-R1A5OsZQK9GlgF2F-1">
          <mxGeometry x="240" y="382.5" width="106" height="20" as="geometry" />
        </mxCell>
        <mxCell id="SFD-R1A5OsZQK9GlgF2F-8" value="" style="shape=cylinder3;whiteSpace=wrap;html=1;boundedLbl=1;backgroundOutline=1;size=7.727294921875;rounded=1;shadow=1;sketch=1;rotation=-90;fillColor=#00CC00;" vertex="1" parent="SFD-R1A5OsZQK9GlgF2F-1">
          <mxGeometry x="270" y="330" width="30" height="125" as="geometry" />
        </mxCell>
        <mxCell id="SFD-R1A5OsZQK9GlgF2F-9" value="&lt;font face=&quot;Garamond&quot; size=&quot;1&quot;&gt;&lt;b style=&quot;font-size: 16px&quot;&gt;Command Bus&lt;/b&gt;&lt;/font&gt;" style="text;html=1;strokeColor=none;fillColor=none;align=center;verticalAlign=middle;whiteSpace=wrap;rounded=0;shadow=1;sketch=1;" vertex="1" parent="SFD-R1A5OsZQK9GlgF2F-1">
          <mxGeometry x="240" y="382.5" width="106" height="20" as="geometry" />
        </mxCell>
        <mxCell id="SFD-R1A5OsZQK9GlgF2F-10" style="edgeStyle=orthogonalEdgeStyle;rounded=0;orthogonalLoop=1;jettySize=auto;html=1;exitX=0.145;exitY=0;exitDx=0;exitDy=2.2409155273437498;exitPerimeter=0;entryX=0.096;entryY=-0.092;entryDx=0;entryDy=0;entryPerimeter=0;strokeWidth=2;fillColor=#007FFF;" edge="1" parent="SFD-R1A5OsZQK9GlgF2F-1" source="SFD-R1A5OsZQK9GlgF2F-11" target="SFD-R1A5OsZQK9GlgF2F-5">
          <mxGeometry relative="1" as="geometry" />
        </mxCell>
        <mxCell id="SFD-R1A5OsZQK9GlgF2F-11" value="" style="shape=cylinder3;whiteSpace=wrap;html=1;boundedLbl=1;backgroundOutline=1;size=7.727294921875;rounded=1;shadow=0;sketch=1;rotation=-90;fillStyle=zigzag;fillColor=#00CC00;" vertex="1" parent="SFD-R1A5OsZQK9GlgF2F-1">
          <mxGeometry x="270" y="330" width="30" height="125" as="geometry" />
        </mxCell>
        <mxCell id="SFD-R1A5OsZQK9GlgF2F-12" style="edgeStyle=orthogonalEdgeStyle;rounded=0;orthogonalLoop=1;jettySize=auto;html=1;entryX=0;entryY=0.25;entryDx=0;entryDy=0;strokeWidth=2;fillColor=#007FFF;" edge="1" parent="SFD-R1A5OsZQK9GlgF2F-1" target="SFD-R1A5OsZQK9GlgF2F-16">
          <mxGeometry relative="1" as="geometry">
            <mxPoint x="340" y="378" as="sourcePoint" />
            <Array as="points">
              <mxPoint x="346" y="378" />
              <mxPoint x="373" y="378" />
            </Array>
          </mxGeometry>
        </mxCell>
        <mxCell id="SFD-R1A5OsZQK9GlgF2F-13" value="&lt;font face=&quot;Garamond&quot; size=&quot;1&quot;&gt;&lt;b style=&quot;font-size: 16px&quot;&gt;Command Bus&lt;/b&gt;&lt;/font&gt;" style="text;html=1;strokeColor=none;fillColor=none;align=center;verticalAlign=middle;whiteSpace=wrap;rounded=0;shadow=0;sketch=1;" vertex="1" parent="SFD-R1A5OsZQK9GlgF2F-1">
          <mxGeometry x="240" y="382.5" width="106" height="20" as="geometry" />
        </mxCell>
        <mxCell id="SFD-R1A5OsZQK9GlgF2F-14" value="&lt;b&gt;&lt;font face=&quot;Garamond&quot; style=&quot;font-size: 16px&quot;&gt;Command Handler&lt;/font&gt;&lt;/b&gt;" style="whiteSpace=wrap;html=1;rounded=1;shadow=0;sketch=1;fillStyle=zigzag;fillColor=#007FFF;" vertex="1" parent="SFD-R1A5OsZQK9GlgF2F-1">
          <mxGeometry x="400" y="365" width="110" height="50" as="geometry" />
        </mxCell>
        <mxCell id="SFD-R1A5OsZQK9GlgF2F-15" value="&lt;b&gt;&lt;font face=&quot;Garamond&quot; style=&quot;font-size: 16px&quot;&gt;Command Handler&lt;/font&gt;&lt;/b&gt;" style="whiteSpace=wrap;html=1;rounded=1;shadow=0;sketch=1;fillStyle=zigzag;fillColor=#007FFF;" vertex="1" parent="SFD-R1A5OsZQK9GlgF2F-1">
          <mxGeometry x="400" y="365" width="110" height="50" as="geometry" />
        </mxCell>
        <mxCell id="SFD-R1A5OsZQK9GlgF2F-16" value="&lt;b&gt;&lt;font face=&quot;Garamond&quot; style=&quot;font-size: 16px&quot;&gt;Command Handler&lt;/font&gt;&lt;/b&gt;" style="whiteSpace=wrap;html=1;rounded=1;shadow=0;sketch=1;fillStyle=zigzag;fillColor=#007FFF;" vertex="1" parent="SFD-R1A5OsZQK9GlgF2F-1">
          <mxGeometry x="400" y="365" width="110" height="50" as="geometry" />
        </mxCell>
        <mxCell id="SFD-R1A5OsZQK9GlgF2F-17" style="edgeStyle=orthogonalEdgeStyle;rounded=0;orthogonalLoop=1;jettySize=auto;html=1;exitX=0.009;exitY=0.392;exitDx=0;exitDy=0;entryX=1;entryY=0.25;entryDx=0;entryDy=0;strokeWidth=2;fillColor=#007FFF;exitPerimeter=0;" edge="1" parent="SFD-R1A5OsZQK9GlgF2F-1" source="SFD-R1A5OsZQK9GlgF2F-19" target="SFD-R1A5OsZQK9GlgF2F-15">
          <mxGeometry relative="1" as="geometry">
            <Array as="points">
              <mxPoint x="557" y="378" />
              <mxPoint x="556" y="378" />
            </Array>
          </mxGeometry>
        </mxCell>
        <mxCell id="SFD-R1A5OsZQK9GlgF2F-18" style="edgeStyle=orthogonalEdgeStyle;rounded=0;orthogonalLoop=1;jettySize=auto;html=1;exitX=1;exitY=0.5;exitDx=0;exitDy=0;entryX=0;entryY=0.75;entryDx=0;entryDy=0;strokeWidth=2;fillColor=#007FFF;" edge="1" parent="SFD-R1A5OsZQK9GlgF2F-1" source="SFD-R1A5OsZQK9GlgF2F-19" target="SFD-R1A5OsZQK9GlgF2F-32">
          <mxGeometry relative="1" as="geometry">
            <Array as="points">
              <mxPoint x="746" y="394" />
            </Array>
          </mxGeometry>
        </mxCell>
        <mxCell id="SFD-R1A5OsZQK9GlgF2F-19" value="" style="rounded=1;whiteSpace=wrap;html=1;shadow=0;sketch=0;fillColor=none;dashed=1;dashPattern=1 2;strokeWidth=2;" vertex="1" parent="SFD-R1A5OsZQK9GlgF2F-1">
          <mxGeometry x="555.5" y="336.88" width="190" height="111.25" as="geometry" />
        </mxCell>
        <mxCell id="SFD-R1A5OsZQK9GlgF2F-20" value="&lt;b style=&quot;color: rgb(0 , 0 , 0) ; font-family: &amp;#34;helvetica&amp;#34; ; font-size: 12px ; font-style: normal ; letter-spacing: normal ; text-align: center ; text-indent: 0px ; text-transform: none ; word-spacing: 0px ; background-color: rgb(248 , 249 , 250)&quot;&gt;&lt;font face=&quot;Garamond&quot; style=&quot;font-size: 16px&quot;&gt;Domain&lt;/font&gt;&lt;/b&gt;" style="text;whiteSpace=wrap;html=1;" vertex="1" parent="SFD-R1A5OsZQK9GlgF2F-1">
          <mxGeometry x="615.5" y="330" width="70" height="30" as="geometry" />
        </mxCell>
        <mxCell id="SFD-R1A5OsZQK9GlgF2F-21" style="edgeStyle=orthogonalEdgeStyle;rounded=0;orthogonalLoop=1;jettySize=auto;html=1;exitX=0.5;exitY=1;exitDx=0;exitDy=0;entryX=0.5;entryY=0;entryDx=0;entryDy=0;shape=link;width=-0.20134228187919412;" edge="1" parent="SFD-R1A5OsZQK9GlgF2F-1" source="SFD-R1A5OsZQK9GlgF2F-22" target="SFD-R1A5OsZQK9GlgF2F-23">
          <mxGeometry relative="1" as="geometry" />
        </mxCell>
        <mxCell id="SFD-R1A5OsZQK9GlgF2F-22" value="" style="whiteSpace=wrap;html=1;rounded=1;shadow=0;sketch=1;fillStyle=solid;strokeColor=#9673a6;fillColor=#330033;" vertex="1" parent="SFD-R1A5OsZQK9GlgF2F-1">
          <mxGeometry x="571" y="360" width="39" height="20" as="geometry" />
        </mxCell>
        <mxCell id="SFD-R1A5OsZQK9GlgF2F-23" value="" style="whiteSpace=wrap;html=1;rounded=1;shadow=0;sketch=1;fillStyle=solid;strokeColor=#9673a6;fillColor=#330033;" vertex="1" parent="SFD-R1A5OsZQK9GlgF2F-1">
          <mxGeometry x="571" y="400" width="39" height="17.5" as="geometry" />
        </mxCell>
        <mxCell id="SFD-R1A5OsZQK9GlgF2F-24" value="" style="whiteSpace=wrap;html=1;rounded=1;shadow=0;sketch=1;fillStyle=solid;fillColor=#FFFF00;strokeColor=#FFB570;" vertex="1" parent="SFD-R1A5OsZQK9GlgF2F-1">
          <mxGeometry x="670" y="355" width="39" height="20" as="geometry" />
        </mxCell>
        <mxCell id="SFD-R1A5OsZQK9GlgF2F-25" value="" style="whiteSpace=wrap;html=1;rounded=1;shadow=0;sketch=1;fillStyle=solid;fillColor=#FFFF00;strokeColor=#FFB570;" vertex="1" parent="SFD-R1A5OsZQK9GlgF2F-1">
          <mxGeometry x="631" y="390" width="39" height="20" as="geometry" />
        </mxCell>
        <mxCell id="SFD-R1A5OsZQK9GlgF2F-26" value="" style="whiteSpace=wrap;html=1;rounded=1;shadow=0;sketch=1;fillStyle=solid;fillColor=#FFFF00;strokeColor=#FFB570;" vertex="1" parent="SFD-R1A5OsZQK9GlgF2F-1">
          <mxGeometry x="690" y="402.5" width="39" height="20" as="geometry" />
        </mxCell>
        <mxCell id="SFD-R1A5OsZQK9GlgF2F-27" value="" style="endArrow=none;html=1;entryX=0.5;entryY=1;entryDx=0;entryDy=0;exitX=0.5;exitY=0;exitDx=0;exitDy=0;" edge="1" parent="SFD-R1A5OsZQK9GlgF2F-1" source="SFD-R1A5OsZQK9GlgF2F-26" target="SFD-R1A5OsZQK9GlgF2F-24">
          <mxGeometry width="50" height="50" relative="1" as="geometry">
            <mxPoint x="250" y="270" as="sourcePoint" />
            <mxPoint x="300" y="220" as="targetPoint" />
          </mxGeometry>
        </mxCell>
        <mxCell id="SFD-R1A5OsZQK9GlgF2F-28" value="" style="endArrow=none;html=1;entryX=0.5;entryY=1;entryDx=0;entryDy=0;exitX=0.75;exitY=0;exitDx=0;exitDy=0;" edge="1" parent="SFD-R1A5OsZQK9GlgF2F-1" source="SFD-R1A5OsZQK9GlgF2F-25" target="SFD-R1A5OsZQK9GlgF2F-24">
          <mxGeometry width="50" height="50" relative="1" as="geometry">
            <mxPoint x="410" y="270" as="sourcePoint" />
            <mxPoint x="460" y="220" as="targetPoint" />
          </mxGeometry>
        </mxCell>
        <mxCell id="SFD-R1A5OsZQK9GlgF2F-29" value="" style="whiteSpace=wrap;html=1;rounded=1;shadow=0;fillColor=#007FFF;sketch=1;fillStyle=solid;arcSize=3;" vertex="1" parent="SFD-R1A5OsZQK9GlgF2F-1">
          <mxGeometry x="810" y="377.5" width="120" height="22.5" as="geometry" />
        </mxCell>
        <mxCell id="SFD-R1A5OsZQK9GlgF2F-30" value="&lt;font face=&quot;Garamond&quot; style=&quot;font-size: 16px&quot;&gt;&lt;b&gt;Repository&lt;/b&gt;&lt;/font&gt;" style="text;html=1;strokeColor=none;fillColor=none;align=center;verticalAlign=middle;whiteSpace=wrap;rounded=0;shadow=0;dashed=1;dashPattern=1 2;sketch=0;" vertex="1" parent="SFD-R1A5OsZQK9GlgF2F-1">
          <mxGeometry x="825" y="377.5" width="90" height="20" as="geometry" />
        </mxCell>
        <mxCell id="SFD-R1A5OsZQK9GlgF2F-31" value="" style="whiteSpace=wrap;html=1;rounded=1;shadow=0;sketch=1;fillStyle=zigzag;arcSize=3;fillColor=#00CC00;" vertex="1" parent="SFD-R1A5OsZQK9GlgF2F-1">
          <mxGeometry x="816" y="382" width="120" height="22.5" as="geometry" />
        </mxCell>
        <mxCell id="SFD-R1A5OsZQK9GlgF2F-32" value="" style="whiteSpace=wrap;html=1;rounded=1;shadow=0;fillColor=#007FFF;sketch=1;fillStyle=solid;arcSize=3;" vertex="1" parent="SFD-R1A5OsZQK9GlgF2F-1">
          <mxGeometry x="810" y="377.5" width="120" height="22.5" as="geometry" />
        </mxCell>
        <mxCell id="SFD-R1A5OsZQK9GlgF2F-33" value="&lt;font face=&quot;Garamond&quot; style=&quot;font-size: 16px&quot;&gt;&lt;b&gt;Repository&lt;/b&gt;&lt;/font&gt;" style="text;html=1;strokeColor=none;fillColor=none;align=center;verticalAlign=middle;whiteSpace=wrap;rounded=0;shadow=0;dashed=1;dashPattern=1 2;sketch=0;" vertex="1" parent="SFD-R1A5OsZQK9GlgF2F-1">
          <mxGeometry x="825" y="377.5" width="95" height="20" as="geometry" />
        </mxCell>
        <mxCell id="SFD-R1A5OsZQK9GlgF2F-34" value="" style="shape=cylinder3;whiteSpace=wrap;html=1;boundedLbl=1;backgroundOutline=1;size=7.727294921875;rounded=1;shadow=0;sketch=1;rotation=-90;fillStyle=zigzag;fillColor=#00CC00;" vertex="1" parent="SFD-R1A5OsZQK9GlgF2F-1">
          <mxGeometry x="290" y="673.25" width="30" height="125" as="geometry" />
        </mxCell>
        <mxCell id="SFD-R1A5OsZQK9GlgF2F-35" value="&lt;font face=&quot;Garamond&quot; size=&quot;1&quot;&gt;&lt;b style=&quot;font-size: 16px&quot;&gt;Query Bus&lt;/b&gt;&lt;/font&gt;" style="text;html=1;strokeColor=none;fillColor=none;align=center;verticalAlign=middle;whiteSpace=wrap;rounded=0;shadow=0;sketch=1;" vertex="1" parent="SFD-R1A5OsZQK9GlgF2F-1">
          <mxGeometry x="260" y="725.75" width="106" height="20" as="geometry" />
        </mxCell>
        <mxCell id="SFD-R1A5OsZQK9GlgF2F-36" value="" style="shape=cylinder3;whiteSpace=wrap;html=1;boundedLbl=1;backgroundOutline=1;size=7.727294921875;rounded=1;shadow=1;sketch=1;rotation=-90;fillStyle=zigzag;fillColor=#00CC00;" vertex="1" parent="SFD-R1A5OsZQK9GlgF2F-1">
          <mxGeometry x="290" y="673.25" width="30" height="125" as="geometry" />
        </mxCell>
        <mxCell id="SFD-R1A5OsZQK9GlgF2F-37" value="&lt;font face=&quot;Garamond&quot; size=&quot;1&quot;&gt;&lt;b style=&quot;font-size: 16px&quot;&gt;Query Bus&lt;/b&gt;&lt;/font&gt;" style="text;html=1;strokeColor=none;fillColor=none;align=center;verticalAlign=middle;whiteSpace=wrap;rounded=0;shadow=1;sketch=1;" vertex="1" parent="SFD-R1A5OsZQK9GlgF2F-1">
          <mxGeometry x="260" y="725.75" width="106" height="20" as="geometry" />
        </mxCell>
        <mxCell id="SFD-R1A5OsZQK9GlgF2F-38" style="edgeStyle=orthogonalEdgeStyle;rounded=0;orthogonalLoop=1;jettySize=auto;html=1;exitX=0.145;exitY=0;exitDx=0;exitDy=2.2409155273437498;exitPerimeter=0;entryX=0.927;entryY=0.017;entryDx=0;entryDy=0;entryPerimeter=0;strokeWidth=2;fillColor=#007FFF;" edge="1" parent="SFD-R1A5OsZQK9GlgF2F-1" source="SFD-R1A5OsZQK9GlgF2F-39" target="SFD-R1A5OsZQK9GlgF2F-3">
          <mxGeometry relative="1" as="geometry" />
        </mxCell>
        <mxCell id="SFD-R1A5OsZQK9GlgF2F-39" value="" style="shape=cylinder3;whiteSpace=wrap;html=1;boundedLbl=1;backgroundOutline=1;size=7.727294921875;rounded=1;shadow=0;sketch=1;rotation=-90;fillStyle=zigzag;fillColor=#00CC00;" vertex="1" parent="SFD-R1A5OsZQK9GlgF2F-1">
          <mxGeometry x="290" y="673.25" width="30" height="125" as="geometry" />
        </mxCell>
        <mxCell id="SFD-R1A5OsZQK9GlgF2F-40" style="edgeStyle=orthogonalEdgeStyle;rounded=0;orthogonalLoop=1;jettySize=auto;html=1;exitX=1;exitY=0;exitDx=0;exitDy=0;entryX=0;entryY=0.25;entryDx=0;entryDy=0;strokeWidth=2;fillColor=#007FFF;" edge="1" parent="SFD-R1A5OsZQK9GlgF2F-1" source="SFD-R1A5OsZQK9GlgF2F-41" target="SFD-R1A5OsZQK9GlgF2F-69">
          <mxGeometry relative="1" as="geometry">
            <Array as="points">
              <mxPoint x="366" y="724" />
            </Array>
          </mxGeometry>
        </mxCell>
        <mxCell id="SFD-R1A5OsZQK9GlgF2F-41" value="&lt;font face=&quot;Garamond&quot; size=&quot;1&quot;&gt;&lt;b style=&quot;font-size: 16px&quot;&gt;Query Bus&lt;/b&gt;&lt;/font&gt;" style="text;html=1;strokeColor=none;fillColor=none;align=center;verticalAlign=middle;whiteSpace=wrap;rounded=0;shadow=0;sketch=1;" vertex="1" parent="SFD-R1A5OsZQK9GlgF2F-1">
          <mxGeometry x="260" y="725.75" width="106" height="20" as="geometry" />
        </mxCell>
        <mxCell id="SFD-R1A5OsZQK9GlgF2F-42" style="edgeStyle=orthogonalEdgeStyle;rounded=0;orthogonalLoop=1;jettySize=auto;html=1;exitX=-0.009;exitY=0.839;exitDx=0;exitDy=0;exitPerimeter=0;entryX=0;entryY=0.5;entryDx=0;entryDy=0;strokeWidth=2;fillColor=#007FFF;" edge="1" parent="SFD-R1A5OsZQK9GlgF2F-1" source="SFD-R1A5OsZQK9GlgF2F-49" target="SFD-R1A5OsZQK9GlgF2F-86">
          <mxGeometry relative="1" as="geometry" />
        </mxCell>
        <mxCell id="SFD-R1A5OsZQK9GlgF2F-43" value="" style="shape=cylinder3;whiteSpace=wrap;html=1;boundedLbl=1;backgroundOutline=1;size=7.727294921875;rounded=1;shadow=0;sketch=1;rotation=-90;fillStyle=zigzag;fillColor=#00CC00;" vertex="1" parent="SFD-R1A5OsZQK9GlgF2F-1">
          <mxGeometry x="973.75" y="485" width="30" height="140" as="geometry" />
        </mxCell>
        <mxCell id="SFD-R1A5OsZQK9GlgF2F-44" value="&lt;font face=&quot;Garamond&quot; size=&quot;1&quot;&gt;&lt;b style=&quot;font-size: 16px&quot;&gt;Event bus/Store&lt;/b&gt;&lt;/font&gt;" style="text;html=1;strokeColor=none;fillColor=none;align=center;verticalAlign=middle;whiteSpace=wrap;rounded=0;shadow=0;sketch=1;" vertex="1" parent="SFD-R1A5OsZQK9GlgF2F-1">
          <mxGeometry x="936.25" y="545" width="120" height="20" as="geometry" />
        </mxCell>
        <mxCell id="SFD-R1A5OsZQK9GlgF2F-45" style="edgeStyle=orthogonalEdgeStyle;rounded=0;orthogonalLoop=1;jettySize=auto;html=1;exitX=0.5;exitY=0;exitDx=0;exitDy=0;exitPerimeter=0;entryX=1;entryY=0.5;entryDx=0;entryDy=0;strokeWidth=2;fillColor=#007FFF;" edge="1" parent="SFD-R1A5OsZQK9GlgF2F-1" source="SFD-R1A5OsZQK9GlgF2F-47" target="SFD-R1A5OsZQK9GlgF2F-54">
          <mxGeometry relative="1" as="geometry">
            <Array as="points">
              <mxPoint x="730" y="555" />
              <mxPoint x="730" y="513" />
              <mxPoint x="650" y="513" />
            </Array>
          </mxGeometry>
        </mxCell>
        <mxCell id="SFD-R1A5OsZQK9GlgF2F-46" style="edgeStyle=orthogonalEdgeStyle;rounded=0;orthogonalLoop=1;jettySize=auto;html=1;exitX=0.5;exitY=0;exitDx=0;exitDy=0;exitPerimeter=0;strokeWidth=2;fillColor=#007FFF;entryX=1;entryY=0.5;entryDx=0;entryDy=0;" edge="1" parent="SFD-R1A5OsZQK9GlgF2F-1" source="SFD-R1A5OsZQK9GlgF2F-47" target="SFD-R1A5OsZQK9GlgF2F-58">
          <mxGeometry relative="1" as="geometry">
            <mxPoint x="600" y="600" as="targetPoint" />
            <Array as="points">
              <mxPoint x="730" y="555" />
              <mxPoint x="730" y="598" />
              <mxPoint x="650" y="598" />
            </Array>
          </mxGeometry>
        </mxCell>
        <mxCell id="SFD-R1A5OsZQK9GlgF2F-47" value="" style="shape=cylinder3;whiteSpace=wrap;html=1;boundedLbl=1;backgroundOutline=1;size=7.727294921875;rounded=1;shadow=0;sketch=1;rotation=-90;fillStyle=zigzag;fillColor=#00CC00;" vertex="1" parent="SFD-R1A5OsZQK9GlgF2F-1">
          <mxGeometry x="974.75" y="485" width="30" height="140" as="geometry" />
        </mxCell>
        <mxCell id="SFD-R1A5OsZQK9GlgF2F-48" value="&lt;font face=&quot;Garamond&quot; size=&quot;1&quot;&gt;&lt;b style=&quot;font-size: 16px&quot;&gt;Event bus/Store&lt;/b&gt;&lt;/font&gt;" style="text;html=1;strokeColor=none;fillColor=none;align=center;verticalAlign=middle;whiteSpace=wrap;rounded=0;shadow=0;sketch=1;" vertex="1" parent="SFD-R1A5OsZQK9GlgF2F-1">
          <mxGeometry x="937.25" y="545" width="120" height="20" as="geometry" />
        </mxCell>
        <mxCell id="SFD-R1A5OsZQK9GlgF2F-49" value="" style="shape=cylinder3;whiteSpace=wrap;html=1;boundedLbl=1;backgroundOutline=1;size=7.727294921875;rounded=1;shadow=0;sketch=1;rotation=-90;fillStyle=zigzag;fillColor=#00CC00;" vertex="1" parent="SFD-R1A5OsZQK9GlgF2F-1">
          <mxGeometry x="974.75" y="485" width="30" height="140" as="geometry" />
        </mxCell>
        <mxCell id="SFD-R1A5OsZQK9GlgF2F-50" value="&lt;font face=&quot;Garamond&quot; size=&quot;1&quot;&gt;&lt;b style=&quot;font-size: 16px&quot;&gt;Event bus/Store&lt;/b&gt;&lt;/font&gt;" style="text;html=1;strokeColor=none;fillColor=none;align=center;verticalAlign=middle;whiteSpace=wrap;rounded=0;shadow=0;sketch=1;" vertex="1" parent="SFD-R1A5OsZQK9GlgF2F-1">
          <mxGeometry x="937.25" y="545" width="120" height="20" as="geometry" />
        </mxCell>
        <mxCell id="SFD-R1A5OsZQK9GlgF2F-51" value="&lt;b&gt;&lt;font face=&quot;Garamond&quot; style=&quot;font-size: 16px&quot;&gt;Evant&lt;br&gt;Handler&lt;/font&gt;&lt;/b&gt;" style="whiteSpace=wrap;html=1;rounded=1;shadow=0;sketch=1;fillStyle=zigzag;fillColor=#007FFF;" vertex="1" parent="SFD-R1A5OsZQK9GlgF2F-1">
          <mxGeometry x="521" y="487.5" width="110" height="50" as="geometry" />
        </mxCell>
        <mxCell id="SFD-R1A5OsZQK9GlgF2F-52" value="&lt;b&gt;&lt;font face=&quot;Garamond&quot; style=&quot;font-size: 16px&quot;&gt;Evant&lt;br&gt;Handler&lt;/font&gt;&lt;/b&gt;" style="whiteSpace=wrap;html=1;rounded=1;shadow=0;sketch=1;fillStyle=zigzag;fillColor=#007FFF;" vertex="1" parent="SFD-R1A5OsZQK9GlgF2F-1">
          <mxGeometry x="521" y="487.5" width="110" height="50" as="geometry" />
        </mxCell>
        <mxCell id="SFD-R1A5OsZQK9GlgF2F-53" value="&lt;b&gt;&lt;font face=&quot;Garamond&quot; style=&quot;font-size: 16px&quot;&gt;Evant&lt;br&gt;Handler&lt;/font&gt;&lt;/b&gt;" style="whiteSpace=wrap;html=1;rounded=1;shadow=0;sketch=1;fillStyle=zigzag;fillColor=#007FFF;" vertex="1" parent="SFD-R1A5OsZQK9GlgF2F-1">
          <mxGeometry x="521" y="487.5" width="110" height="50" as="geometry" />
        </mxCell>
        <mxCell id="SFD-R1A5OsZQK9GlgF2F-54" value="&lt;b&gt;&lt;font face=&quot;Garamond&quot; style=&quot;font-size: 16px&quot;&gt;Event&lt;br&gt;Handler&lt;/font&gt;&lt;/b&gt;" style="whiteSpace=wrap;html=1;rounded=1;shadow=0;sketch=1;fillStyle=zigzag;fillColor=#007FFF;" vertex="1" parent="SFD-R1A5OsZQK9GlgF2F-1">
          <mxGeometry x="521" y="487.5" width="110" height="50" as="geometry" />
        </mxCell>
        <mxCell id="SFD-R1A5OsZQK9GlgF2F-58" value="&lt;b&gt;&lt;font style=&quot;font-size: 17px&quot; face=&quot;Garamond&quot;&gt;Deadline Handler&lt;/font&gt;&lt;/b&gt;" style="whiteSpace=wrap;html=1;rounded=1;shadow=0;sketch=1;fillStyle=zigzag;fillColor=#FFB570;" vertex="1" parent="SFD-R1A5OsZQK9GlgF2F-1">
          <mxGeometry x="521" y="572.5" width="110" height="50" as="geometry" />
        </mxCell>
        <mxCell id="SFD-R1A5OsZQK9GlgF2F-59" value="&lt;b&gt;&lt;font face=&quot;Garamond&quot; style=&quot;font-size: 16px&quot;&gt;Evant&lt;br&gt;Handler&lt;/font&gt;&lt;/b&gt;" style="whiteSpace=wrap;html=1;rounded=1;shadow=0;sketch=1;fillStyle=zigzag;fillColor=#007FFF;" vertex="1" parent="SFD-R1A5OsZQK9GlgF2F-1">
          <mxGeometry x="770" y="717.5" width="110" height="50" as="geometry" />
        </mxCell>
        <mxCell id="SFD-R1A5OsZQK9GlgF2F-60" value="&lt;b&gt;&lt;font face=&quot;Garamond&quot; style=&quot;font-size: 16px&quot;&gt;Evant&lt;br&gt;Handler&lt;/font&gt;&lt;/b&gt;" style="whiteSpace=wrap;html=1;rounded=1;shadow=0;sketch=1;fillStyle=zigzag;fillColor=#007FFF;" vertex="1" parent="SFD-R1A5OsZQK9GlgF2F-1">
          <mxGeometry x="770" y="717.5" width="110" height="50" as="geometry" />
        </mxCell>
        <mxCell id="SFD-R1A5OsZQK9GlgF2F-61" value="&lt;b&gt;&lt;font face=&quot;Garamond&quot; style=&quot;font-size: 16px&quot;&gt;Evant&lt;br&gt;Handler&lt;/font&gt;&lt;/b&gt;" style="whiteSpace=wrap;html=1;rounded=1;shadow=0;sketch=1;fillStyle=zigzag;fillColor=#007FFF;" vertex="1" parent="SFD-R1A5OsZQK9GlgF2F-1">
          <mxGeometry x="770" y="717.5" width="110" height="50" as="geometry" />
        </mxCell>
        <mxCell id="SFD-R1A5OsZQK9GlgF2F-62" style="edgeStyle=orthogonalEdgeStyle;rounded=0;orthogonalLoop=1;jettySize=auto;html=1;exitX=0;exitY=0.5;exitDx=0;exitDy=0;entryX=1.03;entryY=0.573;entryDx=0;entryDy=0;entryPerimeter=0;strokeWidth=2;fillColor=#007FFF;" edge="1" parent="SFD-R1A5OsZQK9GlgF2F-1" source="SFD-R1A5OsZQK9GlgF2F-63" target="SFD-R1A5OsZQK9GlgF2F-72">
          <mxGeometry relative="1" as="geometry" />
        </mxCell>
        <mxCell id="SFD-R1A5OsZQK9GlgF2F-63" value="&lt;b&gt;&lt;font face=&quot;Garamond&quot; style=&quot;font-size: 16px&quot;&gt;Event&lt;br&gt;Handler&lt;/font&gt;&lt;/b&gt;" style="whiteSpace=wrap;html=1;rounded=1;shadow=0;sketch=1;fillStyle=zigzag;fillColor=#007FFF;" vertex="1" parent="SFD-R1A5OsZQK9GlgF2F-1">
          <mxGeometry x="770" y="717.5" width="110" height="50" as="geometry" />
        </mxCell>
        <mxCell id="SFD-R1A5OsZQK9GlgF2F-64" value="&lt;b&gt;&lt;font face=&quot;Garamond&quot; style=&quot;font-size: 16px&quot;&gt;Query&lt;br&gt;Handler&lt;/font&gt;&lt;/b&gt;" style="whiteSpace=wrap;html=1;rounded=1;shadow=0;sketch=1;fillStyle=zigzag;fillColor=#007FFF;" vertex="1" parent="SFD-R1A5OsZQK9GlgF2F-1">
          <mxGeometry x="440" y="711.43" width="110" height="50" as="geometry" />
        </mxCell>
        <mxCell id="SFD-R1A5OsZQK9GlgF2F-65" value="&lt;b&gt;&lt;font face=&quot;Garamond&quot; style=&quot;font-size: 16px&quot;&gt;Query&lt;br&gt;Handler&lt;/font&gt;&lt;/b&gt;" style="whiteSpace=wrap;html=1;rounded=1;shadow=0;sketch=1;fillStyle=zigzag;fillColor=#007FFF;" vertex="1" parent="SFD-R1A5OsZQK9GlgF2F-1">
          <mxGeometry x="440" y="711.43" width="110" height="50" as="geometry" />
        </mxCell>
        <mxCell id="SFD-R1A5OsZQK9GlgF2F-66" value="&lt;b&gt;&lt;font face=&quot;Garamond&quot; style=&quot;font-size: 16px&quot;&gt;Query&lt;br&gt;Handler&lt;/font&gt;&lt;/b&gt;" style="whiteSpace=wrap;html=1;rounded=1;shadow=0;sketch=1;fillStyle=zigzag;fillColor=#007FFF;" vertex="1" parent="SFD-R1A5OsZQK9GlgF2F-1">
          <mxGeometry x="440" y="711.43" width="110" height="50" as="geometry" />
        </mxCell>
        <mxCell id="SFD-R1A5OsZQK9GlgF2F-67" value="&lt;b&gt;&lt;font face=&quot;Garamond&quot; style=&quot;font-size: 16px&quot;&gt;Query&lt;br&gt;Handler&lt;/font&gt;&lt;/b&gt;" style="whiteSpace=wrap;html=1;rounded=1;shadow=0;sketch=1;fillStyle=zigzag;fillColor=#007FFF;" vertex="1" parent="SFD-R1A5OsZQK9GlgF2F-1">
          <mxGeometry x="440" y="711.43" width="110" height="50" as="geometry" />
        </mxCell>
        <mxCell id="SFD-R1A5OsZQK9GlgF2F-68" value="&lt;b&gt;&lt;font face=&quot;Garamond&quot; style=&quot;font-size: 16px&quot;&gt;Query&lt;br&gt;Handler&lt;/font&gt;&lt;/b&gt;" style="whiteSpace=wrap;html=1;rounded=1;shadow=0;sketch=1;fillStyle=zigzag;fillColor=#007FFF;" vertex="1" parent="SFD-R1A5OsZQK9GlgF2F-1">
          <mxGeometry x="440" y="711.43" width="110" height="50" as="geometry" />
        </mxCell>
        <mxCell id="SFD-R1A5OsZQK9GlgF2F-69" value="&lt;b&gt;&lt;font face=&quot;Garamond&quot; style=&quot;font-size: 16px&quot;&gt;Query&lt;br&gt;Handler&lt;/font&gt;&lt;/b&gt;" style="whiteSpace=wrap;html=1;rounded=1;shadow=0;sketch=1;fillStyle=zigzag;fillColor=#007FFF;" vertex="1" parent="SFD-R1A5OsZQK9GlgF2F-1">
          <mxGeometry x="440" y="711.43" width="110" height="50" as="geometry" />
        </mxCell>
        <mxCell id="SFD-R1A5OsZQK9GlgF2F-70" value="&lt;font color=&quot;#000000&quot; face=&quot;Garamond&quot; size=&quot;1&quot;&gt;&lt;b style=&quot;font-size: 16px&quot;&gt;Database&lt;/b&gt;&lt;/font&gt;" style="html=1;verticalLabelPosition=bottom;align=center;labelBackgroundColor=#ffffff;verticalAlign=top;strokeWidth=2;shadow=0;dashed=0;shape=mxgraph.ios7.icons.data;rounded=1;glass=0;sketch=1;fontColor=#0066CC;opacity=80;fillStyle=zigzag;fillColor=#CCCCCC;" vertex="1" parent="SFD-R1A5OsZQK9GlgF2F-1">
          <mxGeometry x="628.75" y="693.9300000000001" width="61.25" height="85" as="geometry" />
        </mxCell>
        <mxCell id="SFD-R1A5OsZQK9GlgF2F-71" value="&lt;font color=&quot;#000000&quot; face=&quot;Garamond&quot; size=&quot;1&quot;&gt;&lt;b style=&quot;font-size: 16px&quot;&gt;Database&lt;/b&gt;&lt;/font&gt;" style="html=1;verticalLabelPosition=bottom;align=center;labelBackgroundColor=#ffffff;verticalAlign=top;strokeWidth=2;shadow=0;dashed=0;shape=mxgraph.ios7.icons.data;rounded=1;glass=0;sketch=1;fontColor=#0066CC;opacity=80;fillStyle=zigzag;fillColor=#CCCCCC;" vertex="1" parent="SFD-R1A5OsZQK9GlgF2F-1">
          <mxGeometry x="630" y="693.9300000000001" width="60" height="85" as="geometry" />
        </mxCell>
        <mxCell id="SFD-R1A5OsZQK9GlgF2F-72" value="&lt;font color=&quot;#000000&quot; face=&quot;Garamond&quot; size=&quot;1&quot;&gt;&lt;b style=&quot;font-size: 16px&quot;&gt;Database&lt;/b&gt;&lt;/font&gt;" style="html=1;verticalLabelPosition=bottom;align=center;labelBackgroundColor=#ffffff;verticalAlign=top;strokeWidth=2;shadow=0;dashed=0;shape=mxgraph.ios7.icons.data;rounded=1;glass=0;sketch=1;fontColor=#0066CC;opacity=80;fillStyle=zigzag;fillColor=#CCCCCC;" vertex="1" parent="SFD-R1A5OsZQK9GlgF2F-1">
          <mxGeometry x="630" y="693.9300000000001" width="60" height="85" as="geometry" />
        </mxCell>
        <mxCell id="SFD-R1A5OsZQK9GlgF2F-73" value="" style="whiteSpace=wrap;html=1;rounded=1;shadow=0;sketch=1;fillStyle=cross-hatch;rotation=90;fillColor=#A9C4EB;" vertex="1" parent="SFD-R1A5OsZQK9GlgF2F-1">
          <mxGeometry x="990.25" y="371.26" width="95" height="30" as="geometry" />
        </mxCell>
        <mxCell id="SFD-R1A5OsZQK9GlgF2F-74" value="&lt;font face=&quot;Garamond&quot; size=&quot;1&quot;&gt;&lt;b style=&quot;font-size: 21px&quot;&gt;Write&lt;/b&gt;&lt;/font&gt;" style="text;html=1;strokeColor=none;fillColor=none;align=center;verticalAlign=middle;whiteSpace=wrap;rounded=0;shadow=1;dashed=1;dashPattern=1 2;sketch=0;rotation=90;" vertex="1" parent="SFD-R1A5OsZQK9GlgF2F-1">
          <mxGeometry x="1017.25" y="376.26" width="40" height="20" as="geometry" />
        </mxCell>
        <mxCell id="SFD-R1A5OsZQK9GlgF2F-75" style="edgeStyle=orthogonalEdgeStyle;rounded=0;orthogonalLoop=1;jettySize=auto;html=1;exitX=1;exitY=0.5;exitDx=0;exitDy=0;strokeWidth=2;fillColor=#007FFF;" edge="1" parent="SFD-R1A5OsZQK9GlgF2F-1" source="SFD-R1A5OsZQK9GlgF2F-78">
          <mxGeometry relative="1" as="geometry">
            <mxPoint x="1038" y="540" as="targetPoint" />
            <Array as="points">
              <mxPoint x="1038" y="540" />
            </Array>
          </mxGeometry>
        </mxCell>
        <mxCell id="SFD-R1A5OsZQK9GlgF2F-76" value="" style="whiteSpace=wrap;html=1;rounded=1;shadow=0;sketch=1;fillStyle=cross-hatch;rotation=90;fillColor=#A9C4EB;" vertex="1" parent="SFD-R1A5OsZQK9GlgF2F-1">
          <mxGeometry x="990.25" y="371.26" width="95" height="30" as="geometry" />
        </mxCell>
        <mxCell id="SFD-R1A5OsZQK9GlgF2F-77" value="&lt;font face=&quot;Garamond&quot; size=&quot;1&quot;&gt;&lt;b style=&quot;font-size: 21px&quot;&gt;Write&lt;/b&gt;&lt;/font&gt;" style="text;html=1;strokeColor=none;fillColor=none;align=center;verticalAlign=middle;whiteSpace=wrap;rounded=0;shadow=1;dashed=1;dashPattern=1 2;sketch=0;rotation=90;" vertex="1" parent="SFD-R1A5OsZQK9GlgF2F-1">
          <mxGeometry x="1017.25" y="376.26" width="40" height="20" as="geometry" />
        </mxCell>
        <mxCell id="SFD-R1A5OsZQK9GlgF2F-78" value="" style="whiteSpace=wrap;html=1;rounded=1;shadow=0;sketch=1;fillStyle=cross-hatch;rotation=90;fillColor=#A9C4EB;" vertex="1" parent="SFD-R1A5OsZQK9GlgF2F-1">
          <mxGeometry x="990.25" y="371.26" width="95" height="30" as="geometry" />
        </mxCell>
        <mxCell id="SFD-R1A5OsZQK9GlgF2F-79" style="edgeStyle=orthogonalEdgeStyle;rounded=0;orthogonalLoop=1;jettySize=auto;html=1;exitX=0.5;exitY=1;exitDx=0;exitDy=0;entryX=1;entryY=0.5;entryDx=0;entryDy=0;strokeWidth=2;fillColor=#007FFF;" edge="1" parent="SFD-R1A5OsZQK9GlgF2F-1" source="SFD-R1A5OsZQK9GlgF2F-80" target="SFD-R1A5OsZQK9GlgF2F-31">
          <mxGeometry relative="1" as="geometry">
            <Array as="points">
              <mxPoint x="1024" y="393" />
            </Array>
          </mxGeometry>
        </mxCell>
        <mxCell id="SFD-R1A5OsZQK9GlgF2F-80" value="&lt;font face=&quot;Garamond&quot; size=&quot;1&quot;&gt;&lt;b style=&quot;font-size: 21px&quot;&gt;Write&lt;/b&gt;&lt;/font&gt;" style="text;html=1;strokeColor=none;fillColor=none;align=center;verticalAlign=middle;whiteSpace=wrap;rounded=0;shadow=1;dashed=1;dashPattern=1 2;sketch=0;rotation=90;" vertex="1" parent="SFD-R1A5OsZQK9GlgF2F-1">
          <mxGeometry x="1016.25" y="373.44" width="41" height="25.63" as="geometry" />
        </mxCell>
        <mxCell id="SFD-R1A5OsZQK9GlgF2F-81" value="" style="whiteSpace=wrap;html=1;rounded=1;shadow=0;sketch=1;fillStyle=cross-hatch;rotation=90;fillColor=#A9C4EB;" vertex="1" parent="SFD-R1A5OsZQK9GlgF2F-1">
          <mxGeometry x="990.25" y="717.5" width="95" height="30" as="geometry" />
        </mxCell>
        <mxCell id="SFD-R1A5OsZQK9GlgF2F-82" value="&lt;font face=&quot;Garamond&quot; size=&quot;1&quot;&gt;&lt;b style=&quot;font-size: 21px&quot;&gt;Read&lt;/b&gt;&lt;/font&gt;" style="text;html=1;strokeColor=none;fillColor=none;align=center;verticalAlign=middle;whiteSpace=wrap;rounded=0;shadow=1;dashed=1;dashPattern=1 2;sketch=0;rotation=90;" vertex="1" parent="SFD-R1A5OsZQK9GlgF2F-1">
          <mxGeometry x="1020" y="725.75" width="33.5" height="20" as="geometry" />
        </mxCell>
        <mxCell id="SFD-R1A5OsZQK9GlgF2F-83" value="" style="whiteSpace=wrap;html=1;rounded=1;shadow=0;sketch=1;fillStyle=cross-hatch;rotation=90;fillColor=#A9C4EB;" vertex="1" parent="SFD-R1A5OsZQK9GlgF2F-1">
          <mxGeometry x="990.25" y="717.5" width="95" height="30" as="geometry" />
        </mxCell>
        <mxCell id="SFD-R1A5OsZQK9GlgF2F-84" value="&lt;font face=&quot;Garamond&quot; size=&quot;1&quot;&gt;&lt;b style=&quot;font-size: 21px&quot;&gt;Read&lt;/b&gt;&lt;/font&gt;" style="text;html=1;strokeColor=none;fillColor=none;align=center;verticalAlign=middle;whiteSpace=wrap;rounded=0;shadow=1;dashed=1;dashPattern=1 2;sketch=0;rotation=90;" vertex="1" parent="SFD-R1A5OsZQK9GlgF2F-1">
          <mxGeometry x="1020" y="725.75" width="33.5" height="20" as="geometry" />
        </mxCell>
        <mxCell id="SFD-R1A5OsZQK9GlgF2F-85" style="edgeStyle=orthogonalEdgeStyle;rounded=0;orthogonalLoop=1;jettySize=auto;html=1;exitX=0.607;exitY=1.001;exitDx=0;exitDy=0;entryX=1;entryY=0.5;entryDx=0;entryDy=0;strokeWidth=2;fillColor=#007FFF;exitPerimeter=0;" edge="1" parent="SFD-R1A5OsZQK9GlgF2F-1" source="SFD-R1A5OsZQK9GlgF2F-86" target="SFD-R1A5OsZQK9GlgF2F-63">
          <mxGeometry relative="1" as="geometry">
            <Array as="points" />
          </mxGeometry>
        </mxCell>
        <mxCell id="SFD-R1A5OsZQK9GlgF2F-86" value="" style="whiteSpace=wrap;html=1;rounded=1;shadow=0;sketch=1;fillStyle=cross-hatch;rotation=90;fillColor=#A9C4EB;" vertex="1" parent="SFD-R1A5OsZQK9GlgF2F-1">
          <mxGeometry x="990.25" y="717.5" width="95" height="30" as="geometry" />
        </mxCell>
        <mxCell id="SFD-R1A5OsZQK9GlgF2F-87" value="&lt;font face=&quot;Garamond&quot; size=&quot;1&quot;&gt;&lt;b style=&quot;font-size: 21px&quot;&gt;Read&lt;/b&gt;&lt;/font&gt;" style="text;html=1;strokeColor=none;fillColor=none;align=center;verticalAlign=middle;whiteSpace=wrap;rounded=0;shadow=1;dashed=1;dashPattern=1 2;sketch=0;rotation=90;" vertex="1" parent="SFD-R1A5OsZQK9GlgF2F-1">
          <mxGeometry x="1018.19" y="726.06" width="37.87" height="20.75" as="geometry" />
        </mxCell>
        <mxCell id="SFD-R1A5OsZQK9GlgF2F-88" value="" style="shape=flexArrow;endArrow=classic;html=1;width=9;endSize=7.91;endWidth=22;fillColor=#007FFF;" edge="1" parent="SFD-R1A5OsZQK9GlgF2F-1">
          <mxGeometry width="50" height="50" relative="1" as="geometry">
            <mxPoint x="984.25" y="439.6300000000001" as="sourcePoint" />
            <mxPoint x="984.25" y="329.6300000000001" as="targetPoint" />
          </mxGeometry>
        </mxCell>
        <mxCell id="SFD-R1A5OsZQK9GlgF2F-89" value="" style="shape=flexArrow;endArrow=classic;html=1;width=9;endSize=7.91;endWidth=22;fillColor=#007FFF;" edge="1" parent="SFD-R1A5OsZQK9GlgF2F-1">
          <mxGeometry width="50" height="50" relative="1" as="geometry">
            <mxPoint x="984" y="679.1799999999998" as="sourcePoint" />
            <mxPoint x="984" y="789.812705078125" as="targetPoint" />
          </mxGeometry>
        </mxCell>
        <mxCell id="SFD-R1A5OsZQK9GlgF2F-90" value="" style="endArrow=none;html=1;fillColor=#007FFF;entryX=0.855;entryY=0;entryDx=0;entryDy=2.2409155273437498;entryPerimeter=0;exitX=0.048;exitY=-0.074;exitDx=0;exitDy=0;exitPerimeter=0;strokeWidth=2;" edge="1" parent="SFD-R1A5OsZQK9GlgF2F-1" source="SFD-R1A5OsZQK9GlgF2F-5" target="SFD-R1A5OsZQK9GlgF2F-11">
          <mxGeometry width="50" height="50" relative="1" as="geometry">
            <mxPoint x="160" y="382" as="sourcePoint" />
            <mxPoint x="580" y="170" as="targetPoint" />
          </mxGeometry>
        </mxCell>
        <mxCell id="SFD-R1A5OsZQK9GlgF2F-91" value="" style="endArrow=none;html=1;strokeWidth=2;fillColor=#007FFF;exitX=1;exitY=1;exitDx=0;exitDy=0;entryX=0;entryY=0.75;entryDx=0;entryDy=0;" edge="1" parent="SFD-R1A5OsZQK9GlgF2F-1" source="SFD-R1A5OsZQK9GlgF2F-13" target="SFD-R1A5OsZQK9GlgF2F-16">
          <mxGeometry width="50" height="50" relative="1" as="geometry">
            <mxPoint x="330" y="260" as="sourcePoint" />
            <mxPoint x="380" y="210" as="targetPoint" />
          </mxGeometry>
        </mxCell>
        <mxCell id="SFD-R1A5OsZQK9GlgF2F-92" value="" style="endArrow=none;html=1;strokeWidth=2;fillColor=#007FFF;exitX=1;exitY=0.75;exitDx=0;exitDy=0;entryX=0.006;entryY=0.601;entryDx=0;entryDy=0;entryPerimeter=0;" edge="1" parent="SFD-R1A5OsZQK9GlgF2F-1" source="SFD-R1A5OsZQK9GlgF2F-16" target="SFD-R1A5OsZQK9GlgF2F-19">
          <mxGeometry width="50" height="50" relative="1" as="geometry">
            <mxPoint x="330" y="260" as="sourcePoint" />
            <mxPoint x="555" y="407" as="targetPoint" />
          </mxGeometry>
        </mxCell>
        <mxCell id="SFD-R1A5OsZQK9GlgF2F-93" value="" style="endArrow=none;html=1;strokeWidth=2;fillColor=#007FFF;entryX=0;entryY=0.25;entryDx=0;entryDy=0;exitX=1.008;exitY=0.405;exitDx=0;exitDy=0;exitPerimeter=0;" edge="1" parent="SFD-R1A5OsZQK9GlgF2F-1" source="SFD-R1A5OsZQK9GlgF2F-19" target="SFD-R1A5OsZQK9GlgF2F-32">
          <mxGeometry width="50" height="50" relative="1" as="geometry">
            <mxPoint x="470" y="260" as="sourcePoint" />
            <mxPoint x="520" y="210" as="targetPoint" />
          </mxGeometry>
        </mxCell>
        <mxCell id="SFD-R1A5OsZQK9GlgF2F-94" value="" style="endArrow=classic;startArrow=classic;html=1;strokeWidth=2;fillColor=#007FFF;entryX=-0.003;entryY=0.496;entryDx=0;entryDy=0;entryPerimeter=0;exitX=1;exitY=0.5;exitDx=0;exitDy=0;" edge="1" parent="SFD-R1A5OsZQK9GlgF2F-1" source="SFD-R1A5OsZQK9GlgF2F-69" target="SFD-R1A5OsZQK9GlgF2F-70">
          <mxGeometry width="50" height="50" relative="1" as="geometry">
            <mxPoint x="550" y="730" as="sourcePoint" />
            <mxPoint x="629" y="738" as="targetPoint" />
          </mxGeometry>
        </mxCell>
        <mxCell id="SFD-R1A5OsZQK9GlgF2F-95" value="" style="endArrow=none;html=1;strokeWidth=2;fillColor=#007FFF;entryX=0;entryY=0.75;entryDx=0;entryDy=0;" edge="1" parent="SFD-R1A5OsZQK9GlgF2F-1" target="SFD-R1A5OsZQK9GlgF2F-69">
          <mxGeometry width="50" height="50" relative="1" as="geometry">
            <mxPoint x="360" y="749" as="sourcePoint" />
            <mxPoint x="500" y="560" as="targetPoint" />
          </mxGeometry>
        </mxCell>
        <mxCell id="SFD-R1A5OsZQK9GlgF2F-96" value="" style="endArrow=none;html=1;strokeWidth=2;fillColor=#007FFF;entryX=0;entryY=0.5;entryDx=0;entryDy=0;exitX=0;exitY=0.5;exitDx=0;exitDy=0;" edge="1" parent="SFD-R1A5OsZQK9GlgF2F-1" source="SFD-R1A5OsZQK9GlgF2F-58" target="SFD-R1A5OsZQK9GlgF2F-54">
          <mxGeometry width="50" height="50" relative="1" as="geometry">
            <mxPoint x="450" y="500" as="sourcePoint" />
            <mxPoint x="500" y="450" as="targetPoint" />
            <Array as="points">
              <mxPoint x="440" y="598" />
              <mxPoint x="440" y="560" />
              <mxPoint x="440" y="513" />
            </Array>
          </mxGeometry>
        </mxCell>
        <mxCell id="SFD-R1A5OsZQK9GlgF2F-97" value="" style="endArrow=classic;html=1;strokeWidth=2;fillColor=#007FFF;entryX=0;entryY=0.5;entryDx=0;entryDy=0;entryPerimeter=0;" edge="1" parent="SFD-R1A5OsZQK9GlgF2F-1" target="SFD-R1A5OsZQK9GlgF2F-11">
          <mxGeometry width="50" height="50" relative="1" as="geometry">
            <mxPoint x="440" y="560" as="sourcePoint" />
            <mxPoint x="500" y="360" as="targetPoint" />
            <Array as="points">
              <mxPoint x="285" y="560" />
            </Array>
          </mxGeometry>
        </mxCell>
        <mxCell id="SFD-R1A5OsZQK9GlgF2F-98" value="&lt;div style=&quot;text-align: center&quot;&gt;&lt;span style=&quot;font-size: 16px&quot;&gt;&lt;font face=&quot;Garamond&quot;&gt;&lt;b style=&quot;font-size: 15px&quot;&gt;command&lt;/b&gt;&lt;/font&gt;&lt;/span&gt;&lt;/div&gt;&lt;span style=&quot;color: rgba(0 , 0 , 0 , 0) ; font-family: monospace ; font-size: 0px&quot;&gt;%3CmxGraphModel%3E%3Croot%3E%3CmxCell%20id%3D%220%22%2F%3E%3CmxCell%20id%3D%221%22%20parent%3D%220%22%2F%3E%3CmxCell%20id%3D%222%22%20value%3D%22%26lt%3Bb%20style%3D%26quot%3Bcolor%3A%20rgb(0%20%2C%200%20%2C%200)%20%3B%20font-family%3A%20%26amp%3B%2334%3Bhelvetica%26amp%3B%2334%3B%20%3B%20font-size%3A%2012px%20%3B%20font-style%3A%20normal%20%3B%20letter-spacing%3A%20normal%20%3B%20text-align%3A%20center%20%3B%20text-indent%3A%200px%20%3B%20text-transform%3A%20none%20%3B%20word-spacing%3A%200px%20%3B%20background-color%3A%20rgb(248%20%2C%20249%20%2C%20250)%26quot%3B%26gt%3B%26lt%3Bfont%20face%3D%26quot%3BGaramond%26quot%3B%20style%3D%26quot%3Bfont-size%3A%2016px%26quot%3B%26gt%3BDomain%26lt%3B%2Ffont%26gt%3B%26lt%3B%2Fb%26gt%3B%22%20style%3D%22text%3BwhiteSpace%3Dwrap%3Bhtml%3D1%3B%22%20vertex%3D%221%22%20parent%3D%221%22%3E%3CmxGeometry%20x%3D%22615.5%22%20y%3D%22330%22%20width%3D%2270%22%20height%3D%2230%22%20as%3D%22geometry%22%2F%3E%3C%2FmxCell%3E%3C%2Froot%3E%3C%2FmxGraphModel%3E&lt;/span&gt;" style="text;whiteSpace=wrap;html=1;" vertex="1" parent="SFD-R1A5OsZQK9GlgF2F-1">
          <mxGeometry x="160" y="355" width="70" height="30" as="geometry" />
        </mxCell>
        <mxCell id="SFD-R1A5OsZQK9GlgF2F-99" value="&lt;b style=&quot;color: rgb(0 , 0 , 0) ; font-family: &amp;#34;helvetica&amp;#34; ; font-size: 12px ; font-style: normal ; letter-spacing: normal ; text-align: center ; text-indent: 0px ; text-transform: none ; word-spacing: 0px ; background-color: rgb(248 , 249 , 250)&quot;&gt;&lt;font face=&quot;Garamond&quot; style=&quot;font-size: 16px&quot;&gt;reply&lt;/font&gt;&lt;/b&gt;" style="text;whiteSpace=wrap;html=1;" vertex="1" parent="SFD-R1A5OsZQK9GlgF2F-1">
          <mxGeometry x="177" y="393.75" width="70" height="30" as="geometry" />
        </mxCell>
        <mxCell id="SFD-R1A5OsZQK9GlgF2F-100" value="&lt;div style=&quot;text-align: center&quot;&gt;&lt;font face=&quot;Garamond&quot;&gt;&lt;span style=&quot;font-size: 15px&quot;&gt;&lt;b&gt;events&lt;/b&gt;&lt;/span&gt;&lt;/font&gt;&lt;/div&gt;" style="text;whiteSpace=wrap;html=1;" vertex="1" parent="SFD-R1A5OsZQK9GlgF2F-1">
          <mxGeometry x="790" y="530" width="70" height="30" as="geometry" />
        </mxCell>
        <mxCell id="SFD-R1A5OsZQK9GlgF2F-101" value="&lt;div style=&quot;text-align: center&quot;&gt;&lt;span style=&quot;font-size: 16px&quot;&gt;&lt;font face=&quot;Garamond&quot;&gt;&lt;b style=&quot;font-size: 15px&quot;&gt;command&lt;/b&gt;&lt;/font&gt;&lt;/span&gt;&lt;/div&gt;&lt;span style=&quot;color: rgba(0 , 0 , 0 , 0) ; font-family: monospace ; font-size: 0px&quot;&gt;%3CmxGraphModel%3E%3Croot%3E%3CmxCell%20id%3D%220%22%2F%3E%3CmxCell%20id%3D%221%22%20parent%3D%220%22%2F%3E%3CmxCell%20id%3D%222%22%20value%3D%22%26lt%3Bb%20style%3D%26quot%3Bcolor%3A%20rgb(0%20%2C%200%20%2C%200)%20%3B%20font-family%3A%20%26amp%3B%2334%3Bhelvetica%26amp%3B%2334%3B%20%3B%20font-size%3A%2012px%20%3B%20font-style%3A%20normal%20%3B%20letter-spacing%3A%20normal%20%3B%20text-align%3A%20center%20%3B%20text-indent%3A%200px%20%3B%20text-transform%3A%20none%20%3B%20word-spacing%3A%200px%20%3B%20background-color%3A%20rgb(248%20%2C%20249%20%2C%20250)%26quot%3B%26gt%3B%26lt%3Bfont%20face%3D%26quot%3BGaramond%26quot%3B%20style%3D%26quot%3Bfont-size%3A%2016px%26quot%3B%26gt%3BDomain%26lt%3B%2Ffont%26gt%3B%26lt%3B%2Fb%26gt%3B%22%20style%3D%22text%3BwhiteSpace%3Dwrap%3Bhtml%3D1%3B%22%20vertex%3D%221%22%20parent%3D%221%22%3E%3CmxGeometry%20x%3D%22615.5%22%20y%3D%22330%22%20width%3D%2270%22%20height%3D%2230%22%20as%3D%22geometry%22%2F%3E%3C%2FmxCell%3E%3C%2Froot%3E%3C%2FmxGraphModel%3E&lt;/span&gt;" style="text;whiteSpace=wrap;html=1;" vertex="1" parent="SFD-R1A5OsZQK9GlgF2F-1">
          <mxGeometry x="330" y="535" width="70" height="30" as="geometry" />
        </mxCell>
        <mxCell id="SFD-R1A5OsZQK9GlgF2F-102" value="&lt;div style=&quot;text-align: center&quot;&gt;&lt;font face=&quot;Garamond&quot;&gt;&lt;span style=&quot;font-size: 15px&quot;&gt;&lt;b&gt;events&lt;/b&gt;&lt;/span&gt;&lt;/font&gt;&lt;/div&gt;" style="text;whiteSpace=wrap;html=1;rotation=90;" vertex="1" parent="SFD-R1A5OsZQK9GlgF2F-1">
          <mxGeometry x="1010" y="485" width="70" height="30" as="geometry" />
        </mxCell>
        <mxCell id="SFD-R1A5OsZQK9GlgF2F-103" value="&lt;div style=&quot;text-align: center&quot;&gt;&lt;font face=&quot;Garamond&quot;&gt;&lt;span style=&quot;font-size: 15px&quot;&gt;&lt;b&gt;evants&lt;/b&gt;&lt;/span&gt;&lt;/font&gt;&lt;/div&gt;" style="text;whiteSpace=wrap;html=1;rotation=90;" vertex="1" parent="SFD-R1A5OsZQK9GlgF2F-1">
          <mxGeometry x="1010" y="622.5" width="70" height="30" as="geometry" />
        </mxCell>
        <mxCell id="SFD-R1A5OsZQK9GlgF2F-104" value="&lt;div style=&quot;text-align: center&quot;&gt;&lt;span lang=&quot;SR-LATN-RS&quot;&gt;&lt;font face=&quot;Garamond&quot; style=&quot;font-size: 15px&quot;&gt;&lt;b&gt;QueryUpdateEmitter&lt;/b&gt;&lt;/font&gt;&lt;/span&gt;&lt;br&gt;&lt;/div&gt;" style="text;whiteSpace=wrap;html=1;rotation=90;" vertex="1" parent="SFD-R1A5OsZQK9GlgF2F-1">
          <mxGeometry x="660" y="710" width="143" height="30" as="geometry" />
        </mxCell>
        <mxCell id="SFD-R1A5OsZQK9GlgF2F-105" value="&lt;div style=&quot;text-align: center&quot;&gt;&lt;font face=&quot;Garamond&quot;&gt;&lt;span style=&quot;font-size: 15px&quot;&gt;&lt;b&gt;query&lt;/b&gt;&lt;/span&gt;&lt;/font&gt;&lt;/div&gt;" style="text;whiteSpace=wrap;html=1;" vertex="1" parent="SFD-R1A5OsZQK9GlgF2F-1">
          <mxGeometry x="170" y="696.06" width="70" height="30" as="geometry" />
        </mxCell>
        <mxCell id="SFD-R1A5OsZQK9GlgF2F-106" value="" style="endArrow=none;html=1;strokeWidth=2;fillColor=#007FFF;entryX=0.855;entryY=0;entryDx=0;entryDy=2.2409155273437498;exitX=0.872;exitY=-0.001;exitDx=0;exitDy=0;exitPerimeter=0;entryPerimeter=0;" edge="1" parent="SFD-R1A5OsZQK9GlgF2F-1" source="SFD-R1A5OsZQK9GlgF2F-3" target="SFD-R1A5OsZQK9GlgF2F-39">
          <mxGeometry width="50" height="50" relative="1" as="geometry">
            <mxPoint x="370" y="759" as="sourcePoint" />
            <mxPoint x="450" y="758.9299999999998" as="targetPoint" />
          </mxGeometry>
        </mxCell>
        <mxCell id="SFD-R1A5OsZQK9GlgF2F-107" value="" style="endArrow=none;dashed=1;html=1;strokeWidth=2;fillColor=#007FFF;exitX=0.673;exitY=-0.037;exitDx=0;exitDy=0;exitPerimeter=0;" edge="1" parent="SFD-R1A5OsZQK9GlgF2F-1" source="SFD-R1A5OsZQK9GlgF2F-5">
          <mxGeometry width="50" height="50" relative="1" as="geometry">
            <mxPoint x="540" y="590" as="sourcePoint" />
            <mxPoint x="1081.45458984375" y="640" as="targetPoint" />
          </mxGeometry>
        </mxCell>
        <mxCell id="SFD-R1A5OsZQK9GlgF2F-112" value="&lt;b&gt;&lt;font style=&quot;font-size: 17px&quot; face=&quot;Garamond&quot;&gt;Deadline Handler&lt;/font&gt;&lt;/b&gt;" style="whiteSpace=wrap;html=1;rounded=1;shadow=0;sketch=1;fillStyle=zigzag;fillColor=#FFB570;" vertex="1" parent="SFD-R1A5OsZQK9GlgF2F-1">
          <mxGeometry x="521" y="572.5" width="110" height="50" as="geometry" />
        </mxCell>
        <mxCell id="SFD-R1A5OsZQK9GlgF2F-113" value="&lt;b&gt;&lt;font style=&quot;font-size: 17px&quot; face=&quot;Garamond&quot;&gt;Deadline Handler&lt;/font&gt;&lt;/b&gt;" style="whiteSpace=wrap;html=1;rounded=1;shadow=0;sketch=1;fillStyle=zigzag;fillColor=#FFB570;" vertex="1" parent="SFD-R1A5OsZQK9GlgF2F-1">
          <mxGeometry x="521" y="572.5" width="110" height="50" as="geometry" />
        </mxCell>
        <mxCell id="SFD-R1A5OsZQK9GlgF2F-114" value="&lt;b&gt;&lt;font style=&quot;font-size: 17px&quot; face=&quot;Garamond&quot;&gt;Deadline Handler&lt;/font&gt;&lt;/b&gt;" style="whiteSpace=wrap;html=1;rounded=1;shadow=0;sketch=1;fillStyle=zigzag;fillColor=#FFB570;" vertex="1" parent="SFD-R1A5OsZQK9GlgF2F-1">
          <mxGeometry x="521" y="572.5" width="110" height="50" as="geometry" />
        </mxCell>
      </root>
    </mxGraphModel>
  </diagram>
</mxfile>
